M48
; DRILL file {KiCad 5.1.2-f72e74a~84~ubuntu16.04.1} date Wed 30 Oct 2019 01:45:24 PM PDT
; FORMAT={-:-/ absolute / inch / decimal}
; #@! TF.CreationDate,2019-10-30T13:45:24-07:00
; #@! TF.GenerationSoftware,Kicad,Pcbnew,5.1.2-f72e74a~84~ubuntu16.04.1
; #@! TF.FileFunction,Plated,1,2,PTH
FMAT,2
INCH
T1C0.0157
T2C0.0430
T3C0.0472
T4C0.2660
%
G90
G05
T1
X8.2706Y-2.6875
X8.406Y-2.8304
X8.9688Y-2.7164
X9.1542Y-2.7044
X9.724Y-2.6798
X9.8489Y-2.7375
X9.9322Y-2.7757
X10.9258Y-2.5072
X10.9409Y-2.6057
X10.9814Y-2.4526
X11.0393Y-2.5697
T2
X10.539Y-2.2047
X10.639Y-2.2047
X10.739Y-2.2047
X10.839Y-2.2047
X7.4681Y-2.2047
X7.5681Y-2.2047
X7.6681Y-2.2047
X7.7681Y-2.2047
X3.3736Y-2.2047
X3.4736Y-2.2047
X3.5736Y-2.2047
X3.6736Y-2.2047
X11.5626Y-2.2047
X11.6626Y-2.2047
X11.7626Y-2.2047
X11.8626Y-2.2047
X6.4445Y-2.2047
X6.5445Y-2.2047
X6.6445Y-2.2047
X6.7445Y-2.2047
X11.0508Y-2.2047
X11.1508Y-2.2047
X11.2508Y-2.2047
X11.3508Y-2.2047
X9.5154Y-2.2047
X9.6154Y-2.2047
X9.7154Y-2.2047
X9.8154Y-2.2047
X5.9327Y-2.2047
X6.0327Y-2.2047
X6.1327Y-2.2047
X6.2327Y-2.2047
X4.3972Y-2.2047
X4.4972Y-2.2047
X4.5972Y-2.2047
X4.6972Y-2.2047
X8.4917Y-2.2047
X8.5917Y-2.2047
X8.6917Y-2.2047
X8.7917Y-2.2047
X12.0744Y-2.2047
X12.1744Y-2.2047
X12.2744Y-2.2047
X12.3744Y-2.2047
X6.9563Y-2.2047
X7.0563Y-2.2047
X7.1563Y-2.2047
X7.2563Y-2.2047
X10.0272Y-2.2047
X10.1272Y-2.2047
X10.2272Y-2.2047
X10.3272Y-2.2047
X5.4209Y-2.2047
X5.5209Y-2.2047
X5.6209Y-2.2047
X5.7209Y-2.2047
X3.8854Y-2.2047
X3.9854Y-2.2047
X4.0854Y-2.2047
X4.1854Y-2.2047
X9.0035Y-2.2047
X9.1035Y-2.2047
X9.2035Y-2.2047
X9.3035Y-2.2047
X4.9091Y-2.2047
X5.0091Y-2.2047
X5.1091Y-2.2047
X5.2091Y-2.2047
X7.9799Y-2.2047
X8.0799Y-2.2047
X8.1799Y-2.2047
X8.2799Y-2.2047
T3
X10.5217Y-2.8346
X10.6595Y-2.8346
X13.3858Y-4.7736
X13.3858Y-4.9114
X4.1831Y-11.811
X4.3209Y-11.811
X10.5217Y-11.811
X10.6595Y-11.811
X13.3858Y-6.2697
X13.3858Y-6.4075
X11.4272Y-11.811
X11.565Y-11.811
X13.3858Y-4.0256
X13.3858Y-4.1634
X6.8996Y-2.8346
X7.0374Y-2.8346
X2.3622Y-9.2618
X2.3622Y-9.3996
X9.6161Y-2.8346
X9.7539Y-2.8346
X13.3858Y-9.2618
X13.3858Y-9.3996
X2.3622Y-10.0098
X2.3622Y-10.1476
X4.1831Y-2.8346
X4.3209Y-2.8346
X11.4272Y-2.8346
X11.565Y-2.8346
X6.8996Y-11.811
X7.0374Y-11.811
X2.3622Y-8.5138
X2.3622Y-8.6516
X13.3858Y-7.7657
X13.3858Y-7.9035
X2.3622Y-5.5217
X2.3622Y-5.6595
X8.7106Y-11.811
X8.8484Y-11.811
X2.3622Y-7.7657
X2.3622Y-7.9035
X13.3858Y-7.0177
X13.3858Y-7.1555
X13.3858Y-10.0098
X13.3858Y-10.1476
X7.8051Y-11.811
X7.9429Y-11.811
X13.3858Y-5.5217
X13.3858Y-5.6595
X2.3622Y-4.0256
X2.3622Y-4.1634
X8.7106Y-2.8346
X8.8484Y-2.8346
X13.3858Y-8.5138
X13.3858Y-8.6516
X5.9941Y-2.8346
X6.1319Y-2.8346
X5.0886Y-2.8346
X5.2264Y-2.8346
X5.9941Y-11.811
X6.1319Y-11.811
X2.3622Y-4.7736
X2.3622Y-4.9114
X2.3622Y-7.0177
X2.3622Y-7.1555
X2.3622Y-6.2697
X2.3622Y-6.4075
X9.6161Y-11.811
X9.7539Y-11.811
X5.0886Y-11.811
X5.2264Y-11.811
X7.8051Y-2.8346
X7.9429Y-2.8346
T4
X2.3819Y-2.963
X2.3819Y-11.2102
X13.3661Y-2.963
X13.3661Y-11.2102
T0
M30
