G04 #@! TF.GenerationSoftware,KiCad,Pcbnew,5.1.2-f72e74a~84~ubuntu16.04.1*
G04 #@! TF.CreationDate,2019-10-30T13:45:20-07:00*
G04 #@! TF.ProjectId,roman_led_frame,726f6d61-6e5f-46c6-9564-5f6672616d65,rev?*
G04 #@! TF.SameCoordinates,Original*
G04 #@! TF.FileFunction,Copper,L2,Bot*
G04 #@! TF.FilePolarity,Positive*
%FSLAX46Y46*%
G04 Gerber Fmt 4.6, Leading zero omitted, Abs format (unit mm)*
G04 Created by KiCad (PCBNEW 5.1.2-f72e74a~84~ubuntu16.04.1) date 2019-10-30 13:45:20*
%MOMM*%
%LPD*%
G04 APERTURE LIST*
%ADD10C,1.800000*%
%ADD11R,1.800000X1.800000*%
%ADD12C,8.026400*%
%ADD13R,2.032000X2.032000*%
%ADD14C,2.032000*%
%ADD15C,0.800000*%
%ADD16C,0.350000*%
G04 APERTURE END LIST*
D10*
X340000000Y-257750060D03*
D11*
X340000000Y-254249940D03*
D10*
X340000000Y-238750060D03*
D11*
X340000000Y-235249940D03*
D10*
X340000000Y-219750060D03*
D11*
X340000000Y-216249940D03*
D10*
X340000000Y-200750060D03*
D11*
X340000000Y-197249940D03*
D10*
X340000000Y-181750060D03*
D11*
X340000000Y-178249940D03*
D10*
X340000000Y-162750060D03*
D11*
X340000000Y-159249940D03*
D10*
X340000000Y-143750060D03*
D11*
X340000000Y-140249940D03*
D10*
X340000000Y-124750060D03*
D11*
X340000000Y-121249940D03*
D10*
X340000000Y-105750060D03*
D11*
X340000000Y-102249940D03*
D10*
X60000000Y-105750060D03*
D11*
X60000000Y-102249940D03*
D10*
X60000000Y-124750060D03*
D11*
X60000000Y-121249940D03*
D10*
X60000000Y-143750060D03*
D11*
X60000000Y-140249940D03*
D10*
X60000000Y-162750060D03*
D11*
X60000000Y-159249940D03*
D10*
X60000000Y-181750060D03*
D11*
X60000000Y-178249940D03*
D10*
X60000000Y-200750060D03*
D11*
X60000000Y-197249940D03*
D10*
X60000000Y-219750060D03*
D11*
X60000000Y-216249940D03*
D10*
X60000000Y-238750060D03*
D11*
X60000000Y-235249940D03*
D10*
X60000000Y-257750060D03*
D11*
X60000000Y-254249940D03*
D10*
X109750060Y-300000000D03*
D11*
X106249940Y-300000000D03*
D10*
X132750060Y-300000000D03*
D11*
X129249940Y-300000000D03*
D10*
X155750060Y-300000000D03*
D11*
X152249940Y-300000000D03*
D10*
X178750060Y-300000000D03*
D11*
X175249940Y-300000000D03*
D10*
X201750060Y-300000000D03*
D11*
X198249940Y-300000000D03*
D10*
X224750060Y-300000000D03*
D11*
X221249940Y-300000000D03*
D10*
X247750060Y-300000000D03*
D11*
X244249940Y-300000000D03*
D10*
X270750060Y-300000000D03*
D11*
X267249940Y-300000000D03*
D10*
X293750060Y-300000000D03*
D11*
X290249940Y-300000000D03*
D10*
X293750060Y-72000000D03*
D11*
X290249940Y-72000000D03*
D10*
X270750060Y-72000000D03*
D11*
X267249940Y-72000000D03*
D10*
X247750060Y-72000000D03*
D11*
X244249940Y-72000000D03*
D10*
X224750060Y-72000000D03*
D11*
X221249940Y-72000000D03*
D10*
X201750060Y-72000000D03*
D11*
X198249940Y-72000000D03*
D10*
X178750060Y-72000000D03*
D11*
X175249940Y-72000000D03*
D10*
X155750060Y-72000000D03*
D11*
X152249940Y-72000000D03*
D10*
X132750060Y-72000000D03*
D11*
X129249940Y-72000000D03*
D10*
X109750060Y-72000000D03*
D11*
X106249940Y-72000000D03*
D12*
X339500000Y-284740000D03*
X339500000Y-75260000D03*
X60500000Y-284740000D03*
X60500000Y-75260000D03*
D13*
X93310000Y-56000000D03*
D14*
X90770000Y-56000000D03*
X88230000Y-56000000D03*
X85690000Y-56000000D03*
X98690000Y-56000000D03*
X101230000Y-56000000D03*
X103770000Y-56000000D03*
D13*
X106310000Y-56000000D03*
X119310000Y-56000000D03*
D14*
X116770000Y-56000000D03*
X114230000Y-56000000D03*
X111690000Y-56000000D03*
X124690000Y-56000000D03*
X127230000Y-56000000D03*
X129770000Y-56000000D03*
D13*
X132310000Y-56000000D03*
D14*
X137690000Y-56000000D03*
X140230000Y-56000000D03*
X142770000Y-56000000D03*
D13*
X145310000Y-56000000D03*
X158310000Y-56000000D03*
D14*
X155770000Y-56000000D03*
X153230000Y-56000000D03*
X150690000Y-56000000D03*
X163690000Y-56000000D03*
X166230000Y-56000000D03*
X168770000Y-56000000D03*
D13*
X171310000Y-56000000D03*
X184310000Y-56000000D03*
D14*
X181770000Y-56000000D03*
X179230000Y-56000000D03*
X176690000Y-56000000D03*
X189690000Y-56000000D03*
X192230000Y-56000000D03*
X194770000Y-56000000D03*
D13*
X197310000Y-56000000D03*
X210310000Y-56000000D03*
D14*
X207770000Y-56000000D03*
X205230000Y-56000000D03*
X202690000Y-56000000D03*
X215690000Y-56000000D03*
X218230000Y-56000000D03*
X220770000Y-56000000D03*
D13*
X223310000Y-56000000D03*
D14*
X228690000Y-56000000D03*
X231230000Y-56000000D03*
X233770000Y-56000000D03*
D13*
X236310000Y-56000000D03*
X249310000Y-56000000D03*
D14*
X246770000Y-56000000D03*
X244230000Y-56000000D03*
X241690000Y-56000000D03*
D13*
X262310000Y-56000000D03*
D14*
X259770000Y-56000000D03*
X257230000Y-56000000D03*
X254690000Y-56000000D03*
X267690000Y-56000000D03*
X270230000Y-56000000D03*
X272770000Y-56000000D03*
D13*
X275310000Y-56000000D03*
X288310000Y-56000000D03*
D14*
X285770000Y-56000000D03*
X283230000Y-56000000D03*
X280690000Y-56000000D03*
X293690000Y-56000000D03*
X296230000Y-56000000D03*
X298770000Y-56000000D03*
D13*
X301310000Y-56000000D03*
D14*
X306690000Y-56000000D03*
X309230000Y-56000000D03*
X311770000Y-56000000D03*
D13*
X314310000Y-56000000D03*
D15*
X213512100Y-71891600D03*
X210072200Y-68261400D03*
X227807400Y-68997200D03*
X232516100Y-68691400D03*
X246988900Y-68066200D03*
X252277800Y-70501600D03*
X250161900Y-69532600D03*
X280397600Y-65270700D03*
X277899700Y-66185400D03*
X278927600Y-62295100D03*
X277516500Y-63683000D03*
D16*
X60000000Y-102249900D02*
X60000000Y-100974600D01*
X93310000Y-56000000D02*
X91338400Y-54028400D01*
X91338400Y-54028400D02*
X84912900Y-54028400D01*
X84912900Y-54028400D02*
X67017700Y-71923600D01*
X67017700Y-71923600D02*
X67017700Y-93956900D01*
X67017700Y-93956900D02*
X60000000Y-100974600D01*
X60000000Y-105750100D02*
X68514800Y-97235300D01*
X68514800Y-97235300D02*
X68514800Y-71204900D01*
X68514800Y-71204900D02*
X85133800Y-54585900D01*
X85133800Y-54585900D02*
X89355900Y-54585900D01*
X89355900Y-54585900D02*
X90770000Y-56000000D01*
X85690000Y-56000000D02*
X69935800Y-71754200D01*
X69935800Y-71754200D02*
X69935800Y-114814300D01*
X69935800Y-114814300D02*
X60000000Y-124750100D01*
X98690000Y-56000000D02*
X76370100Y-78319900D01*
X76370100Y-78319900D02*
X76370100Y-146380000D01*
X76370100Y-146380000D02*
X60000000Y-162750100D01*
X103770000Y-56000000D02*
X102370000Y-54600000D01*
X102370000Y-54600000D02*
X98109900Y-54600000D01*
X98109900Y-54600000D02*
X72618200Y-80091700D01*
X72618200Y-80091700D02*
X72618200Y-131131900D01*
X72618200Y-131131900D02*
X60000000Y-143750100D01*
X114230000Y-56000000D02*
X103286300Y-66943700D01*
X103286300Y-66943700D02*
X95260500Y-66943700D01*
X95260500Y-66943700D02*
X79058400Y-83145800D01*
X79058400Y-83145800D02*
X79058400Y-176916200D01*
X79058400Y-176916200D02*
X60000000Y-195974600D01*
X60000000Y-197249900D02*
X60000000Y-195974600D01*
X111690000Y-56000000D02*
X101296600Y-66393400D01*
X101296600Y-66393400D02*
X95032500Y-66393400D01*
X95032500Y-66393400D02*
X76920500Y-84505400D01*
X76920500Y-84505400D02*
X76920500Y-176612900D01*
X76920500Y-176612900D02*
X58724600Y-194808800D01*
X58724600Y-194808800D02*
X58724600Y-199474700D01*
X58724600Y-199474700D02*
X60000000Y-200750100D01*
X127230000Y-56000000D02*
X113857100Y-69372900D01*
X113857100Y-69372900D02*
X94387900Y-69372900D01*
X94387900Y-69372900D02*
X80220200Y-83540600D01*
X80220200Y-83540600D02*
X80220200Y-213754400D01*
X80220200Y-213754400D02*
X60000000Y-233974600D01*
X60000000Y-235249900D02*
X60000000Y-233974600D01*
X129770000Y-56000000D02*
X128378600Y-54608600D01*
X128378600Y-54608600D02*
X124113700Y-54608600D01*
X124113700Y-54608600D02*
X109966500Y-68755800D01*
X109966500Y-68755800D02*
X94226700Y-68755800D01*
X94226700Y-68755800D02*
X79608700Y-83373800D01*
X79608700Y-83373800D02*
X79608700Y-200141400D01*
X79608700Y-200141400D02*
X60000000Y-219750100D01*
X137690000Y-56000000D02*
X112717100Y-80972900D01*
X112717100Y-80972900D02*
X84344500Y-80972900D01*
X84344500Y-80972900D02*
X81320800Y-83996600D01*
X81320800Y-83996600D02*
X81320800Y-275987900D01*
X81320800Y-275987900D02*
X84106700Y-278773800D01*
X84106700Y-278773800D02*
X88523900Y-278773800D01*
X88523900Y-278773800D02*
X109750100Y-300000000D01*
X140230000Y-56000000D02*
X138800700Y-54570700D01*
X138800700Y-54570700D02*
X136321900Y-54570700D01*
X136321900Y-54570700D02*
X110470000Y-80422600D01*
X110470000Y-80422600D02*
X84116500Y-80422600D01*
X84116500Y-80422600D02*
X80770500Y-83768600D01*
X80770500Y-83768600D02*
X80770500Y-276215900D01*
X80770500Y-276215900D02*
X104554600Y-300000000D01*
X104554600Y-300000000D02*
X104974600Y-300000000D01*
X106249900Y-300000000D02*
X104974600Y-300000000D01*
X158310000Y-56000000D02*
X156882300Y-54572300D01*
X156882300Y-54572300D02*
X149395800Y-54572300D01*
X149395800Y-54572300D02*
X135753600Y-68214500D01*
X135753600Y-68214500D02*
X128407200Y-68214500D01*
X128407200Y-68214500D02*
X115098500Y-81523200D01*
X115098500Y-81523200D02*
X84572500Y-81523200D01*
X84572500Y-81523200D02*
X81871100Y-84224600D01*
X81871100Y-84224600D02*
X81871100Y-275759900D01*
X81871100Y-275759900D02*
X84334700Y-278223500D01*
X84334700Y-278223500D02*
X106198100Y-278223500D01*
X106198100Y-278223500D02*
X127974600Y-300000000D01*
X129249900Y-300000000D02*
X127974600Y-300000000D01*
X155770000Y-56000000D02*
X129107100Y-82662900D01*
X129107100Y-82662900D02*
X84989400Y-82662900D01*
X84989400Y-82662900D02*
X82971700Y-84680600D01*
X82971700Y-84680600D02*
X82971700Y-275303900D01*
X82971700Y-275303900D02*
X84790700Y-277122900D01*
X84790700Y-277122900D02*
X109873000Y-277122900D01*
X109873000Y-277122900D02*
X132750100Y-300000000D01*
X150690000Y-56000000D02*
X124616500Y-82073500D01*
X124616500Y-82073500D02*
X84800500Y-82073500D01*
X84800500Y-82073500D02*
X82421400Y-84452600D01*
X82421400Y-84452600D02*
X82421400Y-275531900D01*
X82421400Y-275531900D02*
X84562700Y-277673200D01*
X84562700Y-277673200D02*
X109301000Y-277673200D01*
X109301000Y-277673200D02*
X130598300Y-298970500D01*
X130598300Y-298970500D02*
X130598300Y-299690900D01*
X130598300Y-299690900D02*
X132182800Y-301275400D01*
X132182800Y-301275400D02*
X154474700Y-301275400D01*
X154474700Y-301275400D02*
X155750100Y-300000000D01*
X166230000Y-56000000D02*
X162729100Y-59500900D01*
X162729100Y-59500900D02*
X155391200Y-59500900D01*
X155391200Y-59500900D02*
X131589600Y-83302500D01*
X131589600Y-83302500D02*
X85128100Y-83302500D01*
X85128100Y-83302500D02*
X83522000Y-84908600D01*
X83522000Y-84908600D02*
X83522000Y-275075900D01*
X83522000Y-275075900D02*
X85018700Y-276572600D01*
X85018700Y-276572600D02*
X141857900Y-276572600D01*
X141857900Y-276572600D02*
X167112200Y-301826900D01*
X167112200Y-301826900D02*
X195147700Y-301826900D01*
X195147700Y-301826900D02*
X196974600Y-300000000D01*
X198249900Y-300000000D02*
X196974600Y-300000000D01*
X168770000Y-56000000D02*
X158169100Y-66600900D01*
X158169100Y-66600900D02*
X154337700Y-66600900D01*
X154337700Y-66600900D02*
X137085700Y-83852900D01*
X137085700Y-83852900D02*
X85356100Y-83852900D01*
X85356100Y-83852900D02*
X84072400Y-85136600D01*
X84072400Y-85136600D02*
X84072400Y-274847900D01*
X84072400Y-274847900D02*
X85164300Y-275939800D01*
X85164300Y-275939800D02*
X146297300Y-275939800D01*
X146297300Y-275939800D02*
X171632900Y-301275400D01*
X171632900Y-301275400D02*
X177474700Y-301275400D01*
X177474700Y-301275400D02*
X178750100Y-300000000D01*
X173974600Y-300000000D02*
X149364000Y-275389400D01*
X149364000Y-275389400D02*
X85431300Y-275389400D01*
X85431300Y-275389400D02*
X84624700Y-274582800D01*
X84624700Y-274582800D02*
X84624700Y-85411200D01*
X84624700Y-85411200D02*
X85451600Y-84584300D01*
X85451600Y-84584300D02*
X137132700Y-84584300D01*
X137132700Y-84584300D02*
X152745400Y-68971600D01*
X152745400Y-68971600D02*
X158338400Y-68971600D01*
X158338400Y-68971600D02*
X171310000Y-56000000D01*
X175249900Y-300000000D02*
X173974600Y-300000000D01*
X185701300Y-56000000D02*
X199457200Y-69755900D01*
X199457200Y-69755900D02*
X205392600Y-69755900D01*
X205392600Y-69755900D02*
X219525600Y-83888900D01*
X219525600Y-83888900D02*
X314643300Y-83888900D01*
X314643300Y-83888900D02*
X315988900Y-85234500D01*
X315988900Y-85234500D02*
X315988900Y-274814300D01*
X315988900Y-274814300D02*
X314877400Y-275925800D01*
X314877400Y-275925800D02*
X251602700Y-275925800D01*
X251602700Y-275925800D02*
X226253200Y-301275300D01*
X226253200Y-301275300D02*
X223800500Y-301275300D01*
X223800500Y-301275300D02*
X222525200Y-300000000D01*
X184310000Y-56000000D02*
X185701300Y-56000000D01*
X221249900Y-300000000D02*
X222525200Y-300000000D01*
X181770000Y-56000000D02*
X181770000Y-56087000D01*
X181770000Y-56087000D02*
X196003800Y-70320800D01*
X196003800Y-70320800D02*
X205069800Y-70320800D01*
X205069800Y-70320800D02*
X219188200Y-84439200D01*
X219188200Y-84439200D02*
X314412700Y-84439200D01*
X314412700Y-84439200D02*
X315384300Y-85410800D01*
X315384300Y-85410800D02*
X315384300Y-274563200D01*
X315384300Y-274563200D02*
X314572100Y-275375400D01*
X314572100Y-275375400D02*
X249374700Y-275375400D01*
X249374700Y-275375400D02*
X224750100Y-300000000D01*
X244249900Y-300000000D02*
X245525200Y-300000000D01*
X179230000Y-56000000D02*
X180621400Y-54608600D01*
X180621400Y-54608600D02*
X185542500Y-54608600D01*
X185542500Y-54608600D02*
X199675400Y-68741500D01*
X199675400Y-68741500D02*
X205250500Y-68741500D01*
X205250500Y-68741500D02*
X219847500Y-83338500D01*
X219847500Y-83338500D02*
X314876900Y-83338500D01*
X314876900Y-83338500D02*
X316539300Y-85000900D01*
X316539300Y-85000900D02*
X316539300Y-275042300D01*
X316539300Y-275042300D02*
X314478000Y-277103600D01*
X314478000Y-277103600D02*
X268421600Y-277103600D01*
X268421600Y-277103600D02*
X245525200Y-300000000D01*
X247750100Y-300000000D02*
X256213600Y-291536500D01*
X256213600Y-291536500D02*
X300823500Y-291536500D01*
X300823500Y-291536500D02*
X317089600Y-275270400D01*
X317089600Y-275270400D02*
X317089600Y-84772900D01*
X317089600Y-84772900D02*
X315104900Y-82788200D01*
X315104900Y-82788200D02*
X220075500Y-82788200D01*
X220075500Y-82788200D02*
X205284200Y-67996900D01*
X205284200Y-67996900D02*
X199709300Y-67996900D01*
X199709300Y-67996900D02*
X185770700Y-54058300D01*
X185770700Y-54058300D02*
X178631700Y-54058300D01*
X178631700Y-54058300D02*
X176690000Y-56000000D01*
X189690000Y-56000000D02*
X191095200Y-54594800D01*
X191095200Y-54594800D02*
X198522900Y-54594800D01*
X198522900Y-54594800D02*
X225615700Y-81687600D01*
X225615700Y-81687600D02*
X315560900Y-81687600D01*
X315560900Y-81687600D02*
X318190200Y-84316900D01*
X318190200Y-84316900D02*
X318190200Y-275851700D01*
X318190200Y-275851700D02*
X294041900Y-300000000D01*
X294041900Y-300000000D02*
X293750100Y-300000000D01*
X192230000Y-56000000D02*
X202391100Y-66161100D01*
X202391100Y-66161100D02*
X205394200Y-66161100D01*
X205394200Y-66161100D02*
X221471000Y-82237900D01*
X221471000Y-82237900D02*
X315332900Y-82237900D01*
X315332900Y-82237900D02*
X317639900Y-84544900D01*
X317639900Y-84544900D02*
X317639900Y-275593200D01*
X317639900Y-275593200D02*
X299895500Y-293337600D01*
X299895500Y-293337600D02*
X298187600Y-293337600D01*
X298187600Y-293337600D02*
X291525200Y-300000000D01*
X290249900Y-300000000D02*
X291525200Y-300000000D01*
X213512100Y-71891600D02*
X211903000Y-71891600D01*
X211903000Y-71891600D02*
X205622100Y-65610700D01*
X205622100Y-65610700D02*
X204312700Y-65610700D01*
X204312700Y-65610700D02*
X194770000Y-56068000D01*
X194770000Y-56068000D02*
X194770000Y-56000000D01*
X197310000Y-56000000D02*
X198701300Y-56000000D01*
X198701300Y-56000000D02*
X198701300Y-56890500D01*
X198701300Y-56890500D02*
X210072200Y-68261400D01*
X227807400Y-68997200D02*
X225476900Y-68997200D01*
X225476900Y-68997200D02*
X212479700Y-56000000D01*
X212479700Y-56000000D02*
X210310000Y-56000000D01*
X340000000Y-257750100D02*
X341275400Y-256474700D01*
X341275400Y-256474700D02*
X341275400Y-230526300D01*
X341275400Y-230526300D02*
X319978700Y-209229600D01*
X319978700Y-209229600D02*
X319978700Y-83692900D01*
X319978700Y-83692900D02*
X316055700Y-79769900D01*
X316055700Y-79769900D02*
X235471100Y-79769900D01*
X235471100Y-79769900D02*
X214046600Y-58345400D01*
X214046600Y-58345400D02*
X210040600Y-58345400D01*
X210040600Y-58345400D02*
X207770000Y-56074800D01*
X207770000Y-56074800D02*
X207770000Y-56000000D01*
X340000000Y-235249900D02*
X340000000Y-233974600D01*
X205230000Y-56000000D02*
X218332100Y-69102100D01*
X218332100Y-69102100D02*
X223655900Y-69102100D01*
X223655900Y-69102100D02*
X235107300Y-80553500D01*
X235107300Y-80553500D02*
X315989200Y-80553500D01*
X315989200Y-80553500D02*
X319290900Y-83855200D01*
X319290900Y-83855200D02*
X319290900Y-213265500D01*
X319290900Y-213265500D02*
X340000000Y-233974600D01*
X340000000Y-238750100D02*
X318740500Y-217490600D01*
X318740500Y-217490600D02*
X318740500Y-84088900D01*
X318740500Y-84088900D02*
X315788900Y-81137300D01*
X315788900Y-81137300D02*
X227827300Y-81137300D01*
X227827300Y-81137300D02*
X202690000Y-56000000D01*
X232516100Y-68691400D02*
X231857900Y-68033200D01*
X231857900Y-68033200D02*
X227723200Y-68033200D01*
X227723200Y-68033200D02*
X215690000Y-56000000D01*
X218230000Y-56000000D02*
X219621400Y-54608600D01*
X219621400Y-54608600D02*
X224501600Y-54608600D01*
X224501600Y-54608600D02*
X247178200Y-77285200D01*
X247178200Y-77285200D02*
X315905900Y-77285200D01*
X315905900Y-77285200D02*
X322317500Y-83696800D01*
X322317500Y-83696800D02*
X322317500Y-178292100D01*
X322317500Y-178292100D02*
X340000000Y-195974600D01*
X340000000Y-197249900D02*
X340000000Y-195974600D01*
X340000000Y-219750100D02*
X320529000Y-200279100D01*
X320529000Y-200279100D02*
X320529000Y-83464900D01*
X320529000Y-83464900D02*
X316000200Y-78936100D01*
X316000200Y-78936100D02*
X245280300Y-78936100D01*
X245280300Y-78936100D02*
X234260300Y-67916100D01*
X234260300Y-67916100D02*
X232599100Y-67916100D01*
X232599100Y-67916100D02*
X220770000Y-56087000D01*
X220770000Y-56087000D02*
X220770000Y-56000000D01*
X224701300Y-56000000D02*
X246536800Y-77835500D01*
X246536800Y-77835500D02*
X315677900Y-77835500D01*
X315677900Y-77835500D02*
X321767200Y-83924800D01*
X321767200Y-83924800D02*
X321767200Y-196741800D01*
X321767200Y-196741800D02*
X340000000Y-214974600D01*
X340000000Y-216249900D02*
X340000000Y-214974600D01*
X223310000Y-56000000D02*
X224701300Y-56000000D01*
X228690000Y-56000000D02*
X240756200Y-68066200D01*
X240756200Y-68066200D02*
X246988900Y-68066200D01*
X340000000Y-159249900D02*
X340000000Y-157974600D01*
X231230000Y-56000000D02*
X234904900Y-52325100D01*
X234904900Y-52325100D02*
X301047400Y-52325100D01*
X301047400Y-52325100D02*
X338724700Y-90002400D01*
X338724700Y-90002400D02*
X338724700Y-156699300D01*
X338724700Y-156699300D02*
X340000000Y-157974600D01*
X233770000Y-56000000D02*
X233770000Y-56071100D01*
X233770000Y-56071100D02*
X235110500Y-57411600D01*
X235110500Y-57411600D02*
X238310700Y-57411600D01*
X238310700Y-57411600D02*
X242252500Y-53469800D01*
X242252500Y-53469800D02*
X289171400Y-53469800D01*
X289171400Y-53469800D02*
X310549200Y-74847600D01*
X310549200Y-74847600D02*
X314251400Y-74847600D01*
X314251400Y-74847600D02*
X322867900Y-83464100D01*
X322867900Y-83464100D02*
X322867900Y-164618000D01*
X322867900Y-164618000D02*
X340000000Y-181750100D01*
X237701300Y-56000000D02*
X240825800Y-52875500D01*
X240825800Y-52875500D02*
X300766200Y-52875500D01*
X300766200Y-52875500D02*
X323418300Y-75527600D01*
X323418300Y-75527600D02*
X323418300Y-160392900D01*
X323418300Y-160392900D02*
X340000000Y-176974600D01*
X340000000Y-178249900D02*
X340000000Y-176974600D01*
X236310000Y-56000000D02*
X237701300Y-56000000D01*
X244230000Y-56000000D02*
X252277800Y-64047800D01*
X252277800Y-64047800D02*
X252277800Y-70501600D01*
X241690000Y-56000000D02*
X241690000Y-61060700D01*
X241690000Y-61060700D02*
X250161900Y-69532600D01*
X257230000Y-56000000D02*
X258621400Y-54608600D01*
X258621400Y-54608600D02*
X276527500Y-54608600D01*
X276527500Y-54608600D02*
X276701300Y-54782400D01*
X276701300Y-54782400D02*
X276701300Y-66088000D01*
X276701300Y-66088000D02*
X282613300Y-72000000D01*
X282613300Y-72000000D02*
X290249900Y-72000000D01*
X254690000Y-56000000D02*
X256638300Y-54051700D01*
X256638300Y-54051700D02*
X288974900Y-54051700D01*
X288974900Y-54051700D02*
X293750100Y-58826900D01*
X293750100Y-58826900D02*
X293750100Y-72000000D01*
X247750100Y-72000000D02*
X251875900Y-72000000D01*
X251875900Y-72000000D02*
X267690000Y-56185900D01*
X267690000Y-56185900D02*
X267690000Y-56000000D01*
X244249900Y-72000000D02*
X245525200Y-72000000D01*
X270230000Y-56000000D02*
X252954700Y-73275300D01*
X252954700Y-73275300D02*
X246800500Y-73275300D01*
X246800500Y-73275300D02*
X245525200Y-72000000D01*
X272770000Y-56000000D02*
X270750100Y-58019900D01*
X270750100Y-58019900D02*
X270750100Y-72000000D01*
X267249900Y-72000000D02*
X268525200Y-72000000D01*
X275310000Y-56000000D02*
X275310000Y-69244400D01*
X275310000Y-69244400D02*
X271279100Y-73275300D01*
X271279100Y-73275300D02*
X269800500Y-73275300D01*
X269800500Y-73275300D02*
X268525200Y-72000000D01*
X288310000Y-56000000D02*
X288310000Y-57391300D01*
X288310000Y-57391300D02*
X288277000Y-57391300D01*
X288277000Y-57391300D02*
X280397600Y-65270700D01*
X285770000Y-56000000D02*
X285770000Y-58315100D01*
X285770000Y-58315100D02*
X277899700Y-66185400D01*
X283230000Y-56000000D02*
X283230000Y-57992700D01*
X283230000Y-57992700D02*
X278927600Y-62295100D01*
X280690000Y-56000000D02*
X277516500Y-59173500D01*
X277516500Y-59173500D02*
X277516500Y-63683000D01*
M02*
