G04 #@! TF.GenerationSoftware,KiCad,Pcbnew,5.1.2-f72e74a~84~ubuntu16.04.1*
G04 #@! TF.CreationDate,2019-10-30T13:45:20-07:00*
G04 #@! TF.ProjectId,roman_led_frame,726f6d61-6e5f-46c6-9564-5f6672616d65,rev?*
G04 #@! TF.SameCoordinates,Original*
G04 #@! TF.FileFunction,Legend,Top*
G04 #@! TF.FilePolarity,Positive*
%FSLAX46Y46*%
G04 Gerber Fmt 4.6, Leading zero omitted, Abs format (unit mm)*
G04 Created by KiCad (PCBNEW 5.1.2-f72e74a~84~ubuntu16.04.1) date 2019-10-30 13:45:20*
%MOMM*%
%LPD*%
G04 APERTURE LIST*
%ADD10C,0.381000*%
%ADD11C,0.254000*%
%ADD12C,0.203200*%
%ADD13C,0.177800*%
G04 APERTURE END LIST*
D10*
X102689428Y-74431142D02*
X102689428Y-75156857D01*
X101165428Y-75156857D01*
X101891142Y-73923142D02*
X101891142Y-73415142D01*
X102689428Y-73197428D02*
X102689428Y-73923142D01*
X101165428Y-73923142D01*
X101165428Y-73197428D01*
X102689428Y-72544285D02*
X101165428Y-72544285D01*
X101165428Y-72181428D01*
X101238000Y-71963714D01*
X101383142Y-71818571D01*
X101528285Y-71746000D01*
X101818571Y-71673428D01*
X102036285Y-71673428D01*
X102326571Y-71746000D01*
X102471714Y-71818571D01*
X102616857Y-71963714D01*
X102689428Y-72181428D01*
X102689428Y-72544285D01*
X101165428Y-71165428D02*
X101165428Y-70222000D01*
X101746000Y-70730000D01*
X101746000Y-70512285D01*
X101818571Y-70367142D01*
X101891142Y-70294571D01*
X102036285Y-70222000D01*
X102399142Y-70222000D01*
X102544285Y-70294571D01*
X102616857Y-70367142D01*
X102689428Y-70512285D01*
X102689428Y-70947714D01*
X102616857Y-71092857D01*
X102544285Y-71165428D01*
X101165428Y-69714000D02*
X101165428Y-68698000D01*
X102689428Y-69351142D01*
X125689428Y-74431142D02*
X125689428Y-75156857D01*
X124165428Y-75156857D01*
X124891142Y-73923142D02*
X124891142Y-73415142D01*
X125689428Y-73197428D02*
X125689428Y-73923142D01*
X124165428Y-73923142D01*
X124165428Y-73197428D01*
X125689428Y-72544285D02*
X124165428Y-72544285D01*
X124165428Y-72181428D01*
X124238000Y-71963714D01*
X124383142Y-71818571D01*
X124528285Y-71746000D01*
X124818571Y-71673428D01*
X125036285Y-71673428D01*
X125326571Y-71746000D01*
X125471714Y-71818571D01*
X125616857Y-71963714D01*
X125689428Y-72181428D01*
X125689428Y-72544285D01*
X124165428Y-71165428D02*
X124165428Y-70222000D01*
X124746000Y-70730000D01*
X124746000Y-70512285D01*
X124818571Y-70367142D01*
X124891142Y-70294571D01*
X125036285Y-70222000D01*
X125399142Y-70222000D01*
X125544285Y-70294571D01*
X125616857Y-70367142D01*
X125689428Y-70512285D01*
X125689428Y-70947714D01*
X125616857Y-71092857D01*
X125544285Y-71165428D01*
X124165428Y-68915714D02*
X124165428Y-69206000D01*
X124238000Y-69351142D01*
X124310571Y-69423714D01*
X124528285Y-69568857D01*
X124818571Y-69641428D01*
X125399142Y-69641428D01*
X125544285Y-69568857D01*
X125616857Y-69496285D01*
X125689428Y-69351142D01*
X125689428Y-69060857D01*
X125616857Y-68915714D01*
X125544285Y-68843142D01*
X125399142Y-68770571D01*
X125036285Y-68770571D01*
X124891142Y-68843142D01*
X124818571Y-68915714D01*
X124746000Y-69060857D01*
X124746000Y-69351142D01*
X124818571Y-69496285D01*
X124891142Y-69568857D01*
X125036285Y-69641428D01*
X148689428Y-74431142D02*
X148689428Y-75156857D01*
X147165428Y-75156857D01*
X147891142Y-73923142D02*
X147891142Y-73415142D01*
X148689428Y-73197428D02*
X148689428Y-73923142D01*
X147165428Y-73923142D01*
X147165428Y-73197428D01*
X148689428Y-72544285D02*
X147165428Y-72544285D01*
X147165428Y-72181428D01*
X147238000Y-71963714D01*
X147383142Y-71818571D01*
X147528285Y-71746000D01*
X147818571Y-71673428D01*
X148036285Y-71673428D01*
X148326571Y-71746000D01*
X148471714Y-71818571D01*
X148616857Y-71963714D01*
X148689428Y-72181428D01*
X148689428Y-72544285D01*
X147165428Y-71165428D02*
X147165428Y-70222000D01*
X147746000Y-70730000D01*
X147746000Y-70512285D01*
X147818571Y-70367142D01*
X147891142Y-70294571D01*
X148036285Y-70222000D01*
X148399142Y-70222000D01*
X148544285Y-70294571D01*
X148616857Y-70367142D01*
X148689428Y-70512285D01*
X148689428Y-70947714D01*
X148616857Y-71092857D01*
X148544285Y-71165428D01*
X147673428Y-68915714D02*
X148689428Y-68915714D01*
X147092857Y-69278571D02*
X148181428Y-69641428D01*
X148181428Y-68698000D01*
X171689428Y-74431142D02*
X171689428Y-75156857D01*
X170165428Y-75156857D01*
X170891142Y-73923142D02*
X170891142Y-73415142D01*
X171689428Y-73197428D02*
X171689428Y-73923142D01*
X170165428Y-73923142D01*
X170165428Y-73197428D01*
X171689428Y-72544285D02*
X170165428Y-72544285D01*
X170165428Y-72181428D01*
X170238000Y-71963714D01*
X170383142Y-71818571D01*
X170528285Y-71746000D01*
X170818571Y-71673428D01*
X171036285Y-71673428D01*
X171326571Y-71746000D01*
X171471714Y-71818571D01*
X171616857Y-71963714D01*
X171689428Y-72181428D01*
X171689428Y-72544285D01*
X170165428Y-71165428D02*
X170165428Y-70222000D01*
X170746000Y-70730000D01*
X170746000Y-70512285D01*
X170818571Y-70367142D01*
X170891142Y-70294571D01*
X171036285Y-70222000D01*
X171399142Y-70222000D01*
X171544285Y-70294571D01*
X171616857Y-70367142D01*
X171689428Y-70512285D01*
X171689428Y-70947714D01*
X171616857Y-71092857D01*
X171544285Y-71165428D01*
X170165428Y-69714000D02*
X170165428Y-68770571D01*
X170746000Y-69278571D01*
X170746000Y-69060857D01*
X170818571Y-68915714D01*
X170891142Y-68843142D01*
X171036285Y-68770571D01*
X171399142Y-68770571D01*
X171544285Y-68843142D01*
X171616857Y-68915714D01*
X171689428Y-69060857D01*
X171689428Y-69496285D01*
X171616857Y-69641428D01*
X171544285Y-69714000D01*
X194689428Y-74431142D02*
X194689428Y-75156857D01*
X193165428Y-75156857D01*
X193891142Y-73923142D02*
X193891142Y-73415142D01*
X194689428Y-73197428D02*
X194689428Y-73923142D01*
X193165428Y-73923142D01*
X193165428Y-73197428D01*
X194689428Y-72544285D02*
X193165428Y-72544285D01*
X193165428Y-72181428D01*
X193238000Y-71963714D01*
X193383142Y-71818571D01*
X193528285Y-71746000D01*
X193818571Y-71673428D01*
X194036285Y-71673428D01*
X194326571Y-71746000D01*
X194471714Y-71818571D01*
X194616857Y-71963714D01*
X194689428Y-72181428D01*
X194689428Y-72544285D01*
X193165428Y-71165428D02*
X193165428Y-70222000D01*
X193746000Y-70730000D01*
X193746000Y-70512285D01*
X193818571Y-70367142D01*
X193891142Y-70294571D01*
X194036285Y-70222000D01*
X194399142Y-70222000D01*
X194544285Y-70294571D01*
X194616857Y-70367142D01*
X194689428Y-70512285D01*
X194689428Y-70947714D01*
X194616857Y-71092857D01*
X194544285Y-71165428D01*
X193310571Y-69641428D02*
X193238000Y-69568857D01*
X193165428Y-69423714D01*
X193165428Y-69060857D01*
X193238000Y-68915714D01*
X193310571Y-68843142D01*
X193455714Y-68770571D01*
X193600857Y-68770571D01*
X193818571Y-68843142D01*
X194689428Y-69714000D01*
X194689428Y-68770571D01*
X217689428Y-74431142D02*
X217689428Y-75156857D01*
X216165428Y-75156857D01*
X216891142Y-73923142D02*
X216891142Y-73415142D01*
X217689428Y-73197428D02*
X217689428Y-73923142D01*
X216165428Y-73923142D01*
X216165428Y-73197428D01*
X217689428Y-72544285D02*
X216165428Y-72544285D01*
X216165428Y-72181428D01*
X216238000Y-71963714D01*
X216383142Y-71818571D01*
X216528285Y-71746000D01*
X216818571Y-71673428D01*
X217036285Y-71673428D01*
X217326571Y-71746000D01*
X217471714Y-71818571D01*
X217616857Y-71963714D01*
X217689428Y-72181428D01*
X217689428Y-72544285D01*
X216165428Y-71165428D02*
X216165428Y-70222000D01*
X216746000Y-70730000D01*
X216746000Y-70512285D01*
X216818571Y-70367142D01*
X216891142Y-70294571D01*
X217036285Y-70222000D01*
X217399142Y-70222000D01*
X217544285Y-70294571D01*
X217616857Y-70367142D01*
X217689428Y-70512285D01*
X217689428Y-70947714D01*
X217616857Y-71092857D01*
X217544285Y-71165428D01*
X217689428Y-68770571D02*
X217689428Y-69641428D01*
X217689428Y-69206000D02*
X216165428Y-69206000D01*
X216383142Y-69351142D01*
X216528285Y-69496285D01*
X216600857Y-69641428D01*
X240689428Y-74431142D02*
X240689428Y-75156857D01*
X239165428Y-75156857D01*
X239891142Y-73923142D02*
X239891142Y-73415142D01*
X240689428Y-73197428D02*
X240689428Y-73923142D01*
X239165428Y-73923142D01*
X239165428Y-73197428D01*
X240689428Y-72544285D02*
X239165428Y-72544285D01*
X239165428Y-72181428D01*
X239238000Y-71963714D01*
X239383142Y-71818571D01*
X239528285Y-71746000D01*
X239818571Y-71673428D01*
X240036285Y-71673428D01*
X240326571Y-71746000D01*
X240471714Y-71818571D01*
X240616857Y-71963714D01*
X240689428Y-72181428D01*
X240689428Y-72544285D01*
X239165428Y-71165428D02*
X239165428Y-70222000D01*
X239746000Y-70730000D01*
X239746000Y-70512285D01*
X239818571Y-70367142D01*
X239891142Y-70294571D01*
X240036285Y-70222000D01*
X240399142Y-70222000D01*
X240544285Y-70294571D01*
X240616857Y-70367142D01*
X240689428Y-70512285D01*
X240689428Y-70947714D01*
X240616857Y-71092857D01*
X240544285Y-71165428D01*
X239165428Y-69278571D02*
X239165428Y-69133428D01*
X239238000Y-68988285D01*
X239310571Y-68915714D01*
X239455714Y-68843142D01*
X239746000Y-68770571D01*
X240108857Y-68770571D01*
X240399142Y-68843142D01*
X240544285Y-68915714D01*
X240616857Y-68988285D01*
X240689428Y-69133428D01*
X240689428Y-69278571D01*
X240616857Y-69423714D01*
X240544285Y-69496285D01*
X240399142Y-69568857D01*
X240108857Y-69641428D01*
X239746000Y-69641428D01*
X239455714Y-69568857D01*
X239310571Y-69496285D01*
X239238000Y-69423714D01*
X239165428Y-69278571D01*
X263689428Y-74431142D02*
X263689428Y-75156857D01*
X262165428Y-75156857D01*
X262891142Y-73923142D02*
X262891142Y-73415142D01*
X263689428Y-73197428D02*
X263689428Y-73923142D01*
X262165428Y-73923142D01*
X262165428Y-73197428D01*
X263689428Y-72544285D02*
X262165428Y-72544285D01*
X262165428Y-72181428D01*
X262238000Y-71963714D01*
X262383142Y-71818571D01*
X262528285Y-71746000D01*
X262818571Y-71673428D01*
X263036285Y-71673428D01*
X263326571Y-71746000D01*
X263471714Y-71818571D01*
X263616857Y-71963714D01*
X263689428Y-72181428D01*
X263689428Y-72544285D01*
X262310571Y-71092857D02*
X262238000Y-71020285D01*
X262165428Y-70875142D01*
X262165428Y-70512285D01*
X262238000Y-70367142D01*
X262310571Y-70294571D01*
X262455714Y-70222000D01*
X262600857Y-70222000D01*
X262818571Y-70294571D01*
X263689428Y-71165428D01*
X263689428Y-70222000D01*
X263689428Y-69496285D02*
X263689428Y-69206000D01*
X263616857Y-69060857D01*
X263544285Y-68988285D01*
X263326571Y-68843142D01*
X263036285Y-68770571D01*
X262455714Y-68770571D01*
X262310571Y-68843142D01*
X262238000Y-68915714D01*
X262165428Y-69060857D01*
X262165428Y-69351142D01*
X262238000Y-69496285D01*
X262310571Y-69568857D01*
X262455714Y-69641428D01*
X262818571Y-69641428D01*
X262963714Y-69568857D01*
X263036285Y-69496285D01*
X263108857Y-69351142D01*
X263108857Y-69060857D01*
X263036285Y-68915714D01*
X262963714Y-68843142D01*
X262818571Y-68770571D01*
X286689428Y-74431142D02*
X286689428Y-75156857D01*
X285165428Y-75156857D01*
X285891142Y-73923142D02*
X285891142Y-73415142D01*
X286689428Y-73197428D02*
X286689428Y-73923142D01*
X285165428Y-73923142D01*
X285165428Y-73197428D01*
X286689428Y-72544285D02*
X285165428Y-72544285D01*
X285165428Y-72181428D01*
X285238000Y-71963714D01*
X285383142Y-71818571D01*
X285528285Y-71746000D01*
X285818571Y-71673428D01*
X286036285Y-71673428D01*
X286326571Y-71746000D01*
X286471714Y-71818571D01*
X286616857Y-71963714D01*
X286689428Y-72181428D01*
X286689428Y-72544285D01*
X285310571Y-71092857D02*
X285238000Y-71020285D01*
X285165428Y-70875142D01*
X285165428Y-70512285D01*
X285238000Y-70367142D01*
X285310571Y-70294571D01*
X285455714Y-70222000D01*
X285600857Y-70222000D01*
X285818571Y-70294571D01*
X286689428Y-71165428D01*
X286689428Y-70222000D01*
X285818571Y-69351142D02*
X285746000Y-69496285D01*
X285673428Y-69568857D01*
X285528285Y-69641428D01*
X285455714Y-69641428D01*
X285310571Y-69568857D01*
X285238000Y-69496285D01*
X285165428Y-69351142D01*
X285165428Y-69060857D01*
X285238000Y-68915714D01*
X285310571Y-68843142D01*
X285455714Y-68770571D01*
X285528285Y-68770571D01*
X285673428Y-68843142D01*
X285746000Y-68915714D01*
X285818571Y-69060857D01*
X285818571Y-69351142D01*
X285891142Y-69496285D01*
X285963714Y-69568857D01*
X286108857Y-69641428D01*
X286399142Y-69641428D01*
X286544285Y-69568857D01*
X286616857Y-69496285D01*
X286689428Y-69351142D01*
X286689428Y-69060857D01*
X286616857Y-68915714D01*
X286544285Y-68843142D01*
X286399142Y-68770571D01*
X286108857Y-68770571D01*
X285963714Y-68843142D01*
X285891142Y-68915714D01*
X285818571Y-69060857D01*
X337568857Y-98689428D02*
X336843142Y-98689428D01*
X336843142Y-97165428D01*
X338076857Y-97891142D02*
X338584857Y-97891142D01*
X338802571Y-98689428D02*
X338076857Y-98689428D01*
X338076857Y-97165428D01*
X338802571Y-97165428D01*
X339455714Y-98689428D02*
X339455714Y-97165428D01*
X339818571Y-97165428D01*
X340036285Y-97238000D01*
X340181428Y-97383142D01*
X340254000Y-97528285D01*
X340326571Y-97818571D01*
X340326571Y-98036285D01*
X340254000Y-98326571D01*
X340181428Y-98471714D01*
X340036285Y-98616857D01*
X339818571Y-98689428D01*
X339455714Y-98689428D01*
X340907142Y-97310571D02*
X340979714Y-97238000D01*
X341124857Y-97165428D01*
X341487714Y-97165428D01*
X341632857Y-97238000D01*
X341705428Y-97310571D01*
X341778000Y-97455714D01*
X341778000Y-97600857D01*
X341705428Y-97818571D01*
X340834571Y-98689428D01*
X341778000Y-98689428D01*
X342286000Y-97165428D02*
X343302000Y-97165428D01*
X342648857Y-98689428D01*
X337568857Y-117689428D02*
X336843142Y-117689428D01*
X336843142Y-116165428D01*
X338076857Y-116891142D02*
X338584857Y-116891142D01*
X338802571Y-117689428D02*
X338076857Y-117689428D01*
X338076857Y-116165428D01*
X338802571Y-116165428D01*
X339455714Y-117689428D02*
X339455714Y-116165428D01*
X339818571Y-116165428D01*
X340036285Y-116238000D01*
X340181428Y-116383142D01*
X340254000Y-116528285D01*
X340326571Y-116818571D01*
X340326571Y-117036285D01*
X340254000Y-117326571D01*
X340181428Y-117471714D01*
X340036285Y-117616857D01*
X339818571Y-117689428D01*
X339455714Y-117689428D01*
X340907142Y-116310571D02*
X340979714Y-116238000D01*
X341124857Y-116165428D01*
X341487714Y-116165428D01*
X341632857Y-116238000D01*
X341705428Y-116310571D01*
X341778000Y-116455714D01*
X341778000Y-116600857D01*
X341705428Y-116818571D01*
X340834571Y-117689428D01*
X341778000Y-117689428D01*
X343084285Y-116165428D02*
X342794000Y-116165428D01*
X342648857Y-116238000D01*
X342576285Y-116310571D01*
X342431142Y-116528285D01*
X342358571Y-116818571D01*
X342358571Y-117399142D01*
X342431142Y-117544285D01*
X342503714Y-117616857D01*
X342648857Y-117689428D01*
X342939142Y-117689428D01*
X343084285Y-117616857D01*
X343156857Y-117544285D01*
X343229428Y-117399142D01*
X343229428Y-117036285D01*
X343156857Y-116891142D01*
X343084285Y-116818571D01*
X342939142Y-116746000D01*
X342648857Y-116746000D01*
X342503714Y-116818571D01*
X342431142Y-116891142D01*
X342358571Y-117036285D01*
X337568857Y-136689428D02*
X336843142Y-136689428D01*
X336843142Y-135165428D01*
X338076857Y-135891142D02*
X338584857Y-135891142D01*
X338802571Y-136689428D02*
X338076857Y-136689428D01*
X338076857Y-135165428D01*
X338802571Y-135165428D01*
X339455714Y-136689428D02*
X339455714Y-135165428D01*
X339818571Y-135165428D01*
X340036285Y-135238000D01*
X340181428Y-135383142D01*
X340254000Y-135528285D01*
X340326571Y-135818571D01*
X340326571Y-136036285D01*
X340254000Y-136326571D01*
X340181428Y-136471714D01*
X340036285Y-136616857D01*
X339818571Y-136689428D01*
X339455714Y-136689428D01*
X340907142Y-135310571D02*
X340979714Y-135238000D01*
X341124857Y-135165428D01*
X341487714Y-135165428D01*
X341632857Y-135238000D01*
X341705428Y-135310571D01*
X341778000Y-135455714D01*
X341778000Y-135600857D01*
X341705428Y-135818571D01*
X340834571Y-136689428D01*
X341778000Y-136689428D01*
X343156857Y-135165428D02*
X342431142Y-135165428D01*
X342358571Y-135891142D01*
X342431142Y-135818571D01*
X342576285Y-135746000D01*
X342939142Y-135746000D01*
X343084285Y-135818571D01*
X343156857Y-135891142D01*
X343229428Y-136036285D01*
X343229428Y-136399142D01*
X343156857Y-136544285D01*
X343084285Y-136616857D01*
X342939142Y-136689428D01*
X342576285Y-136689428D01*
X342431142Y-136616857D01*
X342358571Y-136544285D01*
X337568857Y-155689428D02*
X336843142Y-155689428D01*
X336843142Y-154165428D01*
X338076857Y-154891142D02*
X338584857Y-154891142D01*
X338802571Y-155689428D02*
X338076857Y-155689428D01*
X338076857Y-154165428D01*
X338802571Y-154165428D01*
X339455714Y-155689428D02*
X339455714Y-154165428D01*
X339818571Y-154165428D01*
X340036285Y-154238000D01*
X340181428Y-154383142D01*
X340254000Y-154528285D01*
X340326571Y-154818571D01*
X340326571Y-155036285D01*
X340254000Y-155326571D01*
X340181428Y-155471714D01*
X340036285Y-155616857D01*
X339818571Y-155689428D01*
X339455714Y-155689428D01*
X340907142Y-154310571D02*
X340979714Y-154238000D01*
X341124857Y-154165428D01*
X341487714Y-154165428D01*
X341632857Y-154238000D01*
X341705428Y-154310571D01*
X341778000Y-154455714D01*
X341778000Y-154600857D01*
X341705428Y-154818571D01*
X340834571Y-155689428D01*
X341778000Y-155689428D01*
X343084285Y-154673428D02*
X343084285Y-155689428D01*
X342721428Y-154092857D02*
X342358571Y-155181428D01*
X343302000Y-155181428D01*
X337568857Y-174689428D02*
X336843142Y-174689428D01*
X336843142Y-173165428D01*
X338076857Y-173891142D02*
X338584857Y-173891142D01*
X338802571Y-174689428D02*
X338076857Y-174689428D01*
X338076857Y-173165428D01*
X338802571Y-173165428D01*
X339455714Y-174689428D02*
X339455714Y-173165428D01*
X339818571Y-173165428D01*
X340036285Y-173238000D01*
X340181428Y-173383142D01*
X340254000Y-173528285D01*
X340326571Y-173818571D01*
X340326571Y-174036285D01*
X340254000Y-174326571D01*
X340181428Y-174471714D01*
X340036285Y-174616857D01*
X339818571Y-174689428D01*
X339455714Y-174689428D01*
X340907142Y-173310571D02*
X340979714Y-173238000D01*
X341124857Y-173165428D01*
X341487714Y-173165428D01*
X341632857Y-173238000D01*
X341705428Y-173310571D01*
X341778000Y-173455714D01*
X341778000Y-173600857D01*
X341705428Y-173818571D01*
X340834571Y-174689428D01*
X341778000Y-174689428D01*
X342286000Y-173165428D02*
X343229428Y-173165428D01*
X342721428Y-173746000D01*
X342939142Y-173746000D01*
X343084285Y-173818571D01*
X343156857Y-173891142D01*
X343229428Y-174036285D01*
X343229428Y-174399142D01*
X343156857Y-174544285D01*
X343084285Y-174616857D01*
X342939142Y-174689428D01*
X342503714Y-174689428D01*
X342358571Y-174616857D01*
X342286000Y-174544285D01*
X337568857Y-193689428D02*
X336843142Y-193689428D01*
X336843142Y-192165428D01*
X338076857Y-192891142D02*
X338584857Y-192891142D01*
X338802571Y-193689428D02*
X338076857Y-193689428D01*
X338076857Y-192165428D01*
X338802571Y-192165428D01*
X339455714Y-193689428D02*
X339455714Y-192165428D01*
X339818571Y-192165428D01*
X340036285Y-192238000D01*
X340181428Y-192383142D01*
X340254000Y-192528285D01*
X340326571Y-192818571D01*
X340326571Y-193036285D01*
X340254000Y-193326571D01*
X340181428Y-193471714D01*
X340036285Y-193616857D01*
X339818571Y-193689428D01*
X339455714Y-193689428D01*
X340907142Y-192310571D02*
X340979714Y-192238000D01*
X341124857Y-192165428D01*
X341487714Y-192165428D01*
X341632857Y-192238000D01*
X341705428Y-192310571D01*
X341778000Y-192455714D01*
X341778000Y-192600857D01*
X341705428Y-192818571D01*
X340834571Y-193689428D01*
X341778000Y-193689428D01*
X342358571Y-192310571D02*
X342431142Y-192238000D01*
X342576285Y-192165428D01*
X342939142Y-192165428D01*
X343084285Y-192238000D01*
X343156857Y-192310571D01*
X343229428Y-192455714D01*
X343229428Y-192600857D01*
X343156857Y-192818571D01*
X342286000Y-193689428D01*
X343229428Y-193689428D01*
X337568857Y-212689428D02*
X336843142Y-212689428D01*
X336843142Y-211165428D01*
X338076857Y-211891142D02*
X338584857Y-211891142D01*
X338802571Y-212689428D02*
X338076857Y-212689428D01*
X338076857Y-211165428D01*
X338802571Y-211165428D01*
X339455714Y-212689428D02*
X339455714Y-211165428D01*
X339818571Y-211165428D01*
X340036285Y-211238000D01*
X340181428Y-211383142D01*
X340254000Y-211528285D01*
X340326571Y-211818571D01*
X340326571Y-212036285D01*
X340254000Y-212326571D01*
X340181428Y-212471714D01*
X340036285Y-212616857D01*
X339818571Y-212689428D01*
X339455714Y-212689428D01*
X340907142Y-211310571D02*
X340979714Y-211238000D01*
X341124857Y-211165428D01*
X341487714Y-211165428D01*
X341632857Y-211238000D01*
X341705428Y-211310571D01*
X341778000Y-211455714D01*
X341778000Y-211600857D01*
X341705428Y-211818571D01*
X340834571Y-212689428D01*
X341778000Y-212689428D01*
X343229428Y-212689428D02*
X342358571Y-212689428D01*
X342794000Y-212689428D02*
X342794000Y-211165428D01*
X342648857Y-211383142D01*
X342503714Y-211528285D01*
X342358571Y-211600857D01*
X337568857Y-231689428D02*
X336843142Y-231689428D01*
X336843142Y-230165428D01*
X338076857Y-230891142D02*
X338584857Y-230891142D01*
X338802571Y-231689428D02*
X338076857Y-231689428D01*
X338076857Y-230165428D01*
X338802571Y-230165428D01*
X339455714Y-231689428D02*
X339455714Y-230165428D01*
X339818571Y-230165428D01*
X340036285Y-230238000D01*
X340181428Y-230383142D01*
X340254000Y-230528285D01*
X340326571Y-230818571D01*
X340326571Y-231036285D01*
X340254000Y-231326571D01*
X340181428Y-231471714D01*
X340036285Y-231616857D01*
X339818571Y-231689428D01*
X339455714Y-231689428D01*
X340907142Y-230310571D02*
X340979714Y-230238000D01*
X341124857Y-230165428D01*
X341487714Y-230165428D01*
X341632857Y-230238000D01*
X341705428Y-230310571D01*
X341778000Y-230455714D01*
X341778000Y-230600857D01*
X341705428Y-230818571D01*
X340834571Y-231689428D01*
X341778000Y-231689428D01*
X342721428Y-230165428D02*
X342866571Y-230165428D01*
X343011714Y-230238000D01*
X343084285Y-230310571D01*
X343156857Y-230455714D01*
X343229428Y-230746000D01*
X343229428Y-231108857D01*
X343156857Y-231399142D01*
X343084285Y-231544285D01*
X343011714Y-231616857D01*
X342866571Y-231689428D01*
X342721428Y-231689428D01*
X342576285Y-231616857D01*
X342503714Y-231544285D01*
X342431142Y-231399142D01*
X342358571Y-231108857D01*
X342358571Y-230746000D01*
X342431142Y-230455714D01*
X342503714Y-230310571D01*
X342576285Y-230238000D01*
X342721428Y-230165428D01*
X337568857Y-250689428D02*
X336843142Y-250689428D01*
X336843142Y-249165428D01*
X338076857Y-249891142D02*
X338584857Y-249891142D01*
X338802571Y-250689428D02*
X338076857Y-250689428D01*
X338076857Y-249165428D01*
X338802571Y-249165428D01*
X339455714Y-250689428D02*
X339455714Y-249165428D01*
X339818571Y-249165428D01*
X340036285Y-249238000D01*
X340181428Y-249383142D01*
X340254000Y-249528285D01*
X340326571Y-249818571D01*
X340326571Y-250036285D01*
X340254000Y-250326571D01*
X340181428Y-250471714D01*
X340036285Y-250616857D01*
X339818571Y-250689428D01*
X339455714Y-250689428D01*
X341778000Y-250689428D02*
X340907142Y-250689428D01*
X341342571Y-250689428D02*
X341342571Y-249165428D01*
X341197428Y-249383142D01*
X341052285Y-249528285D01*
X340907142Y-249600857D01*
X342503714Y-250689428D02*
X342794000Y-250689428D01*
X342939142Y-250616857D01*
X343011714Y-250544285D01*
X343156857Y-250326571D01*
X343229428Y-250036285D01*
X343229428Y-249455714D01*
X343156857Y-249310571D01*
X343084285Y-249238000D01*
X342939142Y-249165428D01*
X342648857Y-249165428D01*
X342503714Y-249238000D01*
X342431142Y-249310571D01*
X342358571Y-249455714D01*
X342358571Y-249818571D01*
X342431142Y-249963714D01*
X342503714Y-250036285D01*
X342648857Y-250108857D01*
X342939142Y-250108857D01*
X343084285Y-250036285D01*
X343156857Y-249963714D01*
X343229428Y-249818571D01*
X286689428Y-302431142D02*
X286689428Y-303156857D01*
X285165428Y-303156857D01*
X285891142Y-301923142D02*
X285891142Y-301415142D01*
X286689428Y-301197428D02*
X286689428Y-301923142D01*
X285165428Y-301923142D01*
X285165428Y-301197428D01*
X286689428Y-300544285D02*
X285165428Y-300544285D01*
X285165428Y-300181428D01*
X285238000Y-299963714D01*
X285383142Y-299818571D01*
X285528285Y-299746000D01*
X285818571Y-299673428D01*
X286036285Y-299673428D01*
X286326571Y-299746000D01*
X286471714Y-299818571D01*
X286616857Y-299963714D01*
X286689428Y-300181428D01*
X286689428Y-300544285D01*
X286689428Y-298222000D02*
X286689428Y-299092857D01*
X286689428Y-298657428D02*
X285165428Y-298657428D01*
X285383142Y-298802571D01*
X285528285Y-298947714D01*
X285600857Y-299092857D01*
X285818571Y-297351142D02*
X285746000Y-297496285D01*
X285673428Y-297568857D01*
X285528285Y-297641428D01*
X285455714Y-297641428D01*
X285310571Y-297568857D01*
X285238000Y-297496285D01*
X285165428Y-297351142D01*
X285165428Y-297060857D01*
X285238000Y-296915714D01*
X285310571Y-296843142D01*
X285455714Y-296770571D01*
X285528285Y-296770571D01*
X285673428Y-296843142D01*
X285746000Y-296915714D01*
X285818571Y-297060857D01*
X285818571Y-297351142D01*
X285891142Y-297496285D01*
X285963714Y-297568857D01*
X286108857Y-297641428D01*
X286399142Y-297641428D01*
X286544285Y-297568857D01*
X286616857Y-297496285D01*
X286689428Y-297351142D01*
X286689428Y-297060857D01*
X286616857Y-296915714D01*
X286544285Y-296843142D01*
X286399142Y-296770571D01*
X286108857Y-296770571D01*
X285963714Y-296843142D01*
X285891142Y-296915714D01*
X285818571Y-297060857D01*
X263689428Y-302431142D02*
X263689428Y-303156857D01*
X262165428Y-303156857D01*
X262891142Y-301923142D02*
X262891142Y-301415142D01*
X263689428Y-301197428D02*
X263689428Y-301923142D01*
X262165428Y-301923142D01*
X262165428Y-301197428D01*
X263689428Y-300544285D02*
X262165428Y-300544285D01*
X262165428Y-300181428D01*
X262238000Y-299963714D01*
X262383142Y-299818571D01*
X262528285Y-299746000D01*
X262818571Y-299673428D01*
X263036285Y-299673428D01*
X263326571Y-299746000D01*
X263471714Y-299818571D01*
X263616857Y-299963714D01*
X263689428Y-300181428D01*
X263689428Y-300544285D01*
X263689428Y-298222000D02*
X263689428Y-299092857D01*
X263689428Y-298657428D02*
X262165428Y-298657428D01*
X262383142Y-298802571D01*
X262528285Y-298947714D01*
X262600857Y-299092857D01*
X262165428Y-297714000D02*
X262165428Y-296698000D01*
X263689428Y-297351142D01*
X240689428Y-302431142D02*
X240689428Y-303156857D01*
X239165428Y-303156857D01*
X239891142Y-301923142D02*
X239891142Y-301415142D01*
X240689428Y-301197428D02*
X240689428Y-301923142D01*
X239165428Y-301923142D01*
X239165428Y-301197428D01*
X240689428Y-300544285D02*
X239165428Y-300544285D01*
X239165428Y-300181428D01*
X239238000Y-299963714D01*
X239383142Y-299818571D01*
X239528285Y-299746000D01*
X239818571Y-299673428D01*
X240036285Y-299673428D01*
X240326571Y-299746000D01*
X240471714Y-299818571D01*
X240616857Y-299963714D01*
X240689428Y-300181428D01*
X240689428Y-300544285D01*
X240689428Y-298222000D02*
X240689428Y-299092857D01*
X240689428Y-298657428D02*
X239165428Y-298657428D01*
X239383142Y-298802571D01*
X239528285Y-298947714D01*
X239600857Y-299092857D01*
X239165428Y-296915714D02*
X239165428Y-297206000D01*
X239238000Y-297351142D01*
X239310571Y-297423714D01*
X239528285Y-297568857D01*
X239818571Y-297641428D01*
X240399142Y-297641428D01*
X240544285Y-297568857D01*
X240616857Y-297496285D01*
X240689428Y-297351142D01*
X240689428Y-297060857D01*
X240616857Y-296915714D01*
X240544285Y-296843142D01*
X240399142Y-296770571D01*
X240036285Y-296770571D01*
X239891142Y-296843142D01*
X239818571Y-296915714D01*
X239746000Y-297060857D01*
X239746000Y-297351142D01*
X239818571Y-297496285D01*
X239891142Y-297568857D01*
X240036285Y-297641428D01*
X217689428Y-302431142D02*
X217689428Y-303156857D01*
X216165428Y-303156857D01*
X216891142Y-301923142D02*
X216891142Y-301415142D01*
X217689428Y-301197428D02*
X217689428Y-301923142D01*
X216165428Y-301923142D01*
X216165428Y-301197428D01*
X217689428Y-300544285D02*
X216165428Y-300544285D01*
X216165428Y-300181428D01*
X216238000Y-299963714D01*
X216383142Y-299818571D01*
X216528285Y-299746000D01*
X216818571Y-299673428D01*
X217036285Y-299673428D01*
X217326571Y-299746000D01*
X217471714Y-299818571D01*
X217616857Y-299963714D01*
X217689428Y-300181428D01*
X217689428Y-300544285D01*
X217689428Y-298222000D02*
X217689428Y-299092857D01*
X217689428Y-298657428D02*
X216165428Y-298657428D01*
X216383142Y-298802571D01*
X216528285Y-298947714D01*
X216600857Y-299092857D01*
X216165428Y-296843142D02*
X216165428Y-297568857D01*
X216891142Y-297641428D01*
X216818571Y-297568857D01*
X216746000Y-297423714D01*
X216746000Y-297060857D01*
X216818571Y-296915714D01*
X216891142Y-296843142D01*
X217036285Y-296770571D01*
X217399142Y-296770571D01*
X217544285Y-296843142D01*
X217616857Y-296915714D01*
X217689428Y-297060857D01*
X217689428Y-297423714D01*
X217616857Y-297568857D01*
X217544285Y-297641428D01*
X194689428Y-302431142D02*
X194689428Y-303156857D01*
X193165428Y-303156857D01*
X193891142Y-301923142D02*
X193891142Y-301415142D01*
X194689428Y-301197428D02*
X194689428Y-301923142D01*
X193165428Y-301923142D01*
X193165428Y-301197428D01*
X194689428Y-300544285D02*
X193165428Y-300544285D01*
X193165428Y-300181428D01*
X193238000Y-299963714D01*
X193383142Y-299818571D01*
X193528285Y-299746000D01*
X193818571Y-299673428D01*
X194036285Y-299673428D01*
X194326571Y-299746000D01*
X194471714Y-299818571D01*
X194616857Y-299963714D01*
X194689428Y-300181428D01*
X194689428Y-300544285D01*
X194689428Y-298222000D02*
X194689428Y-299092857D01*
X194689428Y-298657428D02*
X193165428Y-298657428D01*
X193383142Y-298802571D01*
X193528285Y-298947714D01*
X193600857Y-299092857D01*
X193673428Y-296915714D02*
X194689428Y-296915714D01*
X193092857Y-297278571D02*
X194181428Y-297641428D01*
X194181428Y-296698000D01*
X171689428Y-302431142D02*
X171689428Y-303156857D01*
X170165428Y-303156857D01*
X170891142Y-301923142D02*
X170891142Y-301415142D01*
X171689428Y-301197428D02*
X171689428Y-301923142D01*
X170165428Y-301923142D01*
X170165428Y-301197428D01*
X171689428Y-300544285D02*
X170165428Y-300544285D01*
X170165428Y-300181428D01*
X170238000Y-299963714D01*
X170383142Y-299818571D01*
X170528285Y-299746000D01*
X170818571Y-299673428D01*
X171036285Y-299673428D01*
X171326571Y-299746000D01*
X171471714Y-299818571D01*
X171616857Y-299963714D01*
X171689428Y-300181428D01*
X171689428Y-300544285D01*
X171689428Y-298222000D02*
X171689428Y-299092857D01*
X171689428Y-298657428D02*
X170165428Y-298657428D01*
X170383142Y-298802571D01*
X170528285Y-298947714D01*
X170600857Y-299092857D01*
X170165428Y-297714000D02*
X170165428Y-296770571D01*
X170746000Y-297278571D01*
X170746000Y-297060857D01*
X170818571Y-296915714D01*
X170891142Y-296843142D01*
X171036285Y-296770571D01*
X171399142Y-296770571D01*
X171544285Y-296843142D01*
X171616857Y-296915714D01*
X171689428Y-297060857D01*
X171689428Y-297496285D01*
X171616857Y-297641428D01*
X171544285Y-297714000D01*
X148689428Y-301931142D02*
X148689428Y-302656857D01*
X147165428Y-302656857D01*
X147891142Y-301423142D02*
X147891142Y-300915142D01*
X148689428Y-300697428D02*
X148689428Y-301423142D01*
X147165428Y-301423142D01*
X147165428Y-300697428D01*
X148689428Y-300044285D02*
X147165428Y-300044285D01*
X147165428Y-299681428D01*
X147238000Y-299463714D01*
X147383142Y-299318571D01*
X147528285Y-299246000D01*
X147818571Y-299173428D01*
X148036285Y-299173428D01*
X148326571Y-299246000D01*
X148471714Y-299318571D01*
X148616857Y-299463714D01*
X148689428Y-299681428D01*
X148689428Y-300044285D01*
X148689428Y-297722000D02*
X148689428Y-298592857D01*
X148689428Y-298157428D02*
X147165428Y-298157428D01*
X147383142Y-298302571D01*
X147528285Y-298447714D01*
X147600857Y-298592857D01*
X147310571Y-297141428D02*
X147238000Y-297068857D01*
X147165428Y-296923714D01*
X147165428Y-296560857D01*
X147238000Y-296415714D01*
X147310571Y-296343142D01*
X147455714Y-296270571D01*
X147600857Y-296270571D01*
X147818571Y-296343142D01*
X148689428Y-297214000D01*
X148689428Y-296270571D01*
X125689428Y-302431142D02*
X125689428Y-303156857D01*
X124165428Y-303156857D01*
X124891142Y-301923142D02*
X124891142Y-301415142D01*
X125689428Y-301197428D02*
X125689428Y-301923142D01*
X124165428Y-301923142D01*
X124165428Y-301197428D01*
X125689428Y-300544285D02*
X124165428Y-300544285D01*
X124165428Y-300181428D01*
X124238000Y-299963714D01*
X124383142Y-299818571D01*
X124528285Y-299746000D01*
X124818571Y-299673428D01*
X125036285Y-299673428D01*
X125326571Y-299746000D01*
X125471714Y-299818571D01*
X125616857Y-299963714D01*
X125689428Y-300181428D01*
X125689428Y-300544285D01*
X125689428Y-298222000D02*
X125689428Y-299092857D01*
X125689428Y-298657428D02*
X124165428Y-298657428D01*
X124383142Y-298802571D01*
X124528285Y-298947714D01*
X124600857Y-299092857D01*
X125689428Y-296770571D02*
X125689428Y-297641428D01*
X125689428Y-297206000D02*
X124165428Y-297206000D01*
X124383142Y-297351142D01*
X124528285Y-297496285D01*
X124600857Y-297641428D01*
X102689428Y-302431142D02*
X102689428Y-303156857D01*
X101165428Y-303156857D01*
X101891142Y-301923142D02*
X101891142Y-301415142D01*
X102689428Y-301197428D02*
X102689428Y-301923142D01*
X101165428Y-301923142D01*
X101165428Y-301197428D01*
X102689428Y-300544285D02*
X101165428Y-300544285D01*
X101165428Y-300181428D01*
X101238000Y-299963714D01*
X101383142Y-299818571D01*
X101528285Y-299746000D01*
X101818571Y-299673428D01*
X102036285Y-299673428D01*
X102326571Y-299746000D01*
X102471714Y-299818571D01*
X102616857Y-299963714D01*
X102689428Y-300181428D01*
X102689428Y-300544285D01*
X102689428Y-298222000D02*
X102689428Y-299092857D01*
X102689428Y-298657428D02*
X101165428Y-298657428D01*
X101383142Y-298802571D01*
X101528285Y-298947714D01*
X101600857Y-299092857D01*
X101165428Y-297278571D02*
X101165428Y-297133428D01*
X101238000Y-296988285D01*
X101310571Y-296915714D01*
X101455714Y-296843142D01*
X101746000Y-296770571D01*
X102108857Y-296770571D01*
X102399142Y-296843142D01*
X102544285Y-296915714D01*
X102616857Y-296988285D01*
X102689428Y-297133428D01*
X102689428Y-297278571D01*
X102616857Y-297423714D01*
X102544285Y-297496285D01*
X102399142Y-297568857D01*
X102108857Y-297641428D01*
X101746000Y-297641428D01*
X101455714Y-297568857D01*
X101310571Y-297496285D01*
X101238000Y-297423714D01*
X101165428Y-297278571D01*
X58294571Y-250689428D02*
X57568857Y-250689428D01*
X57568857Y-249165428D01*
X58802571Y-249891142D02*
X59310571Y-249891142D01*
X59528285Y-250689428D02*
X58802571Y-250689428D01*
X58802571Y-249165428D01*
X59528285Y-249165428D01*
X60181428Y-250689428D02*
X60181428Y-249165428D01*
X60544285Y-249165428D01*
X60762000Y-249238000D01*
X60907142Y-249383142D01*
X60979714Y-249528285D01*
X61052285Y-249818571D01*
X61052285Y-250036285D01*
X60979714Y-250326571D01*
X60907142Y-250471714D01*
X60762000Y-250616857D01*
X60544285Y-250689428D01*
X60181428Y-250689428D01*
X61778000Y-250689428D02*
X62068285Y-250689428D01*
X62213428Y-250616857D01*
X62286000Y-250544285D01*
X62431142Y-250326571D01*
X62503714Y-250036285D01*
X62503714Y-249455714D01*
X62431142Y-249310571D01*
X62358571Y-249238000D01*
X62213428Y-249165428D01*
X61923142Y-249165428D01*
X61778000Y-249238000D01*
X61705428Y-249310571D01*
X61632857Y-249455714D01*
X61632857Y-249818571D01*
X61705428Y-249963714D01*
X61778000Y-250036285D01*
X61923142Y-250108857D01*
X62213428Y-250108857D01*
X62358571Y-250036285D01*
X62431142Y-249963714D01*
X62503714Y-249818571D01*
X58294571Y-231689428D02*
X57568857Y-231689428D01*
X57568857Y-230165428D01*
X58802571Y-230891142D02*
X59310571Y-230891142D01*
X59528285Y-231689428D02*
X58802571Y-231689428D01*
X58802571Y-230165428D01*
X59528285Y-230165428D01*
X60181428Y-231689428D02*
X60181428Y-230165428D01*
X60544285Y-230165428D01*
X60762000Y-230238000D01*
X60907142Y-230383142D01*
X60979714Y-230528285D01*
X61052285Y-230818571D01*
X61052285Y-231036285D01*
X60979714Y-231326571D01*
X60907142Y-231471714D01*
X60762000Y-231616857D01*
X60544285Y-231689428D01*
X60181428Y-231689428D01*
X61923142Y-230818571D02*
X61778000Y-230746000D01*
X61705428Y-230673428D01*
X61632857Y-230528285D01*
X61632857Y-230455714D01*
X61705428Y-230310571D01*
X61778000Y-230238000D01*
X61923142Y-230165428D01*
X62213428Y-230165428D01*
X62358571Y-230238000D01*
X62431142Y-230310571D01*
X62503714Y-230455714D01*
X62503714Y-230528285D01*
X62431142Y-230673428D01*
X62358571Y-230746000D01*
X62213428Y-230818571D01*
X61923142Y-230818571D01*
X61778000Y-230891142D01*
X61705428Y-230963714D01*
X61632857Y-231108857D01*
X61632857Y-231399142D01*
X61705428Y-231544285D01*
X61778000Y-231616857D01*
X61923142Y-231689428D01*
X62213428Y-231689428D01*
X62358571Y-231616857D01*
X62431142Y-231544285D01*
X62503714Y-231399142D01*
X62503714Y-231108857D01*
X62431142Y-230963714D01*
X62358571Y-230891142D01*
X62213428Y-230818571D01*
X58294571Y-212689428D02*
X57568857Y-212689428D01*
X57568857Y-211165428D01*
X58802571Y-211891142D02*
X59310571Y-211891142D01*
X59528285Y-212689428D02*
X58802571Y-212689428D01*
X58802571Y-211165428D01*
X59528285Y-211165428D01*
X60181428Y-212689428D02*
X60181428Y-211165428D01*
X60544285Y-211165428D01*
X60762000Y-211238000D01*
X60907142Y-211383142D01*
X60979714Y-211528285D01*
X61052285Y-211818571D01*
X61052285Y-212036285D01*
X60979714Y-212326571D01*
X60907142Y-212471714D01*
X60762000Y-212616857D01*
X60544285Y-212689428D01*
X60181428Y-212689428D01*
X61560285Y-211165428D02*
X62576285Y-211165428D01*
X61923142Y-212689428D01*
X58294571Y-193689428D02*
X57568857Y-193689428D01*
X57568857Y-192165428D01*
X58802571Y-192891142D02*
X59310571Y-192891142D01*
X59528285Y-193689428D02*
X58802571Y-193689428D01*
X58802571Y-192165428D01*
X59528285Y-192165428D01*
X60181428Y-193689428D02*
X60181428Y-192165428D01*
X60544285Y-192165428D01*
X60762000Y-192238000D01*
X60907142Y-192383142D01*
X60979714Y-192528285D01*
X61052285Y-192818571D01*
X61052285Y-193036285D01*
X60979714Y-193326571D01*
X60907142Y-193471714D01*
X60762000Y-193616857D01*
X60544285Y-193689428D01*
X60181428Y-193689428D01*
X62358571Y-192165428D02*
X62068285Y-192165428D01*
X61923142Y-192238000D01*
X61850571Y-192310571D01*
X61705428Y-192528285D01*
X61632857Y-192818571D01*
X61632857Y-193399142D01*
X61705428Y-193544285D01*
X61778000Y-193616857D01*
X61923142Y-193689428D01*
X62213428Y-193689428D01*
X62358571Y-193616857D01*
X62431142Y-193544285D01*
X62503714Y-193399142D01*
X62503714Y-193036285D01*
X62431142Y-192891142D01*
X62358571Y-192818571D01*
X62213428Y-192746000D01*
X61923142Y-192746000D01*
X61778000Y-192818571D01*
X61705428Y-192891142D01*
X61632857Y-193036285D01*
X58294571Y-174689428D02*
X57568857Y-174689428D01*
X57568857Y-173165428D01*
X58802571Y-173891142D02*
X59310571Y-173891142D01*
X59528285Y-174689428D02*
X58802571Y-174689428D01*
X58802571Y-173165428D01*
X59528285Y-173165428D01*
X60181428Y-174689428D02*
X60181428Y-173165428D01*
X60544285Y-173165428D01*
X60762000Y-173238000D01*
X60907142Y-173383142D01*
X60979714Y-173528285D01*
X61052285Y-173818571D01*
X61052285Y-174036285D01*
X60979714Y-174326571D01*
X60907142Y-174471714D01*
X60762000Y-174616857D01*
X60544285Y-174689428D01*
X60181428Y-174689428D01*
X62431142Y-173165428D02*
X61705428Y-173165428D01*
X61632857Y-173891142D01*
X61705428Y-173818571D01*
X61850571Y-173746000D01*
X62213428Y-173746000D01*
X62358571Y-173818571D01*
X62431142Y-173891142D01*
X62503714Y-174036285D01*
X62503714Y-174399142D01*
X62431142Y-174544285D01*
X62358571Y-174616857D01*
X62213428Y-174689428D01*
X61850571Y-174689428D01*
X61705428Y-174616857D01*
X61632857Y-174544285D01*
X58294571Y-155689428D02*
X57568857Y-155689428D01*
X57568857Y-154165428D01*
X58802571Y-154891142D02*
X59310571Y-154891142D01*
X59528285Y-155689428D02*
X58802571Y-155689428D01*
X58802571Y-154165428D01*
X59528285Y-154165428D01*
X60181428Y-155689428D02*
X60181428Y-154165428D01*
X60544285Y-154165428D01*
X60762000Y-154238000D01*
X60907142Y-154383142D01*
X60979714Y-154528285D01*
X61052285Y-154818571D01*
X61052285Y-155036285D01*
X60979714Y-155326571D01*
X60907142Y-155471714D01*
X60762000Y-155616857D01*
X60544285Y-155689428D01*
X60181428Y-155689428D01*
X62358571Y-154673428D02*
X62358571Y-155689428D01*
X61995714Y-154092857D02*
X61632857Y-155181428D01*
X62576285Y-155181428D01*
X58294571Y-136689428D02*
X57568857Y-136689428D01*
X57568857Y-135165428D01*
X58802571Y-135891142D02*
X59310571Y-135891142D01*
X59528285Y-136689428D02*
X58802571Y-136689428D01*
X58802571Y-135165428D01*
X59528285Y-135165428D01*
X60181428Y-136689428D02*
X60181428Y-135165428D01*
X60544285Y-135165428D01*
X60762000Y-135238000D01*
X60907142Y-135383142D01*
X60979714Y-135528285D01*
X61052285Y-135818571D01*
X61052285Y-136036285D01*
X60979714Y-136326571D01*
X60907142Y-136471714D01*
X60762000Y-136616857D01*
X60544285Y-136689428D01*
X60181428Y-136689428D01*
X61560285Y-135165428D02*
X62503714Y-135165428D01*
X61995714Y-135746000D01*
X62213428Y-135746000D01*
X62358571Y-135818571D01*
X62431142Y-135891142D01*
X62503714Y-136036285D01*
X62503714Y-136399142D01*
X62431142Y-136544285D01*
X62358571Y-136616857D01*
X62213428Y-136689428D01*
X61778000Y-136689428D01*
X61632857Y-136616857D01*
X61560285Y-136544285D01*
X58294571Y-117689428D02*
X57568857Y-117689428D01*
X57568857Y-116165428D01*
X58802571Y-116891142D02*
X59310571Y-116891142D01*
X59528285Y-117689428D02*
X58802571Y-117689428D01*
X58802571Y-116165428D01*
X59528285Y-116165428D01*
X60181428Y-117689428D02*
X60181428Y-116165428D01*
X60544285Y-116165428D01*
X60762000Y-116238000D01*
X60907142Y-116383142D01*
X60979714Y-116528285D01*
X61052285Y-116818571D01*
X61052285Y-117036285D01*
X60979714Y-117326571D01*
X60907142Y-117471714D01*
X60762000Y-117616857D01*
X60544285Y-117689428D01*
X60181428Y-117689428D01*
X61632857Y-116310571D02*
X61705428Y-116238000D01*
X61850571Y-116165428D01*
X62213428Y-116165428D01*
X62358571Y-116238000D01*
X62431142Y-116310571D01*
X62503714Y-116455714D01*
X62503714Y-116600857D01*
X62431142Y-116818571D01*
X61560285Y-117689428D01*
X62503714Y-117689428D01*
X58294571Y-98689428D02*
X57568857Y-98689428D01*
X57568857Y-97165428D01*
X58802571Y-97891142D02*
X59310571Y-97891142D01*
X59528285Y-98689428D02*
X58802571Y-98689428D01*
X58802571Y-97165428D01*
X59528285Y-97165428D01*
X60181428Y-98689428D02*
X60181428Y-97165428D01*
X60544285Y-97165428D01*
X60762000Y-97238000D01*
X60907142Y-97383142D01*
X60979714Y-97528285D01*
X61052285Y-97818571D01*
X61052285Y-98036285D01*
X60979714Y-98326571D01*
X60907142Y-98471714D01*
X60762000Y-98616857D01*
X60544285Y-98689428D01*
X60181428Y-98689428D01*
X62503714Y-98689428D02*
X61632857Y-98689428D01*
X62068285Y-98689428D02*
X62068285Y-97165428D01*
X61923142Y-97383142D01*
X61778000Y-97528285D01*
X61632857Y-97600857D01*
X343429000Y-260064000D02*
X343429000Y-251936000D01*
X336571000Y-260064000D02*
X343429000Y-260064000D01*
X336571000Y-251936000D02*
X336571000Y-260064000D01*
X343429000Y-251936000D02*
X336571000Y-251936000D01*
X343429000Y-241064000D02*
X343429000Y-232936000D01*
X336571000Y-241064000D02*
X343429000Y-241064000D01*
X336571000Y-232936000D02*
X336571000Y-241064000D01*
X343429000Y-232936000D02*
X336571000Y-232936000D01*
X343429000Y-222064000D02*
X343429000Y-213936000D01*
X336571000Y-222064000D02*
X343429000Y-222064000D01*
X336571000Y-213936000D02*
X336571000Y-222064000D01*
X343429000Y-213936000D02*
X336571000Y-213936000D01*
X343429000Y-203064000D02*
X343429000Y-194936000D01*
X336571000Y-203064000D02*
X343429000Y-203064000D01*
X336571000Y-194936000D02*
X336571000Y-203064000D01*
X343429000Y-194936000D02*
X336571000Y-194936000D01*
X343429000Y-184064000D02*
X343429000Y-175936000D01*
X336571000Y-184064000D02*
X343429000Y-184064000D01*
X336571000Y-175936000D02*
X336571000Y-184064000D01*
X343429000Y-175936000D02*
X336571000Y-175936000D01*
X343429000Y-165064000D02*
X343429000Y-156936000D01*
X336571000Y-165064000D02*
X343429000Y-165064000D01*
X336571000Y-156936000D02*
X336571000Y-165064000D01*
X343429000Y-156936000D02*
X336571000Y-156936000D01*
X343429000Y-146064000D02*
X343429000Y-137936000D01*
X336571000Y-146064000D02*
X343429000Y-146064000D01*
X336571000Y-137936000D02*
X336571000Y-146064000D01*
X343429000Y-137936000D02*
X336571000Y-137936000D01*
X343429000Y-127064000D02*
X343429000Y-118936000D01*
X336571000Y-127064000D02*
X343429000Y-127064000D01*
X336571000Y-118936000D02*
X336571000Y-127064000D01*
X343429000Y-118936000D02*
X336571000Y-118936000D01*
X343429000Y-108064000D02*
X343429000Y-99936000D01*
X336571000Y-108064000D02*
X343429000Y-108064000D01*
X336571000Y-99936000D02*
X336571000Y-108064000D01*
X343429000Y-99936000D02*
X336571000Y-99936000D01*
X63429000Y-108064000D02*
X63429000Y-99936000D01*
X56571000Y-108064000D02*
X63429000Y-108064000D01*
X56571000Y-99936000D02*
X56571000Y-108064000D01*
X63429000Y-99936000D02*
X56571000Y-99936000D01*
X63429000Y-127064000D02*
X63429000Y-118936000D01*
X56571000Y-127064000D02*
X63429000Y-127064000D01*
X56571000Y-118936000D02*
X56571000Y-127064000D01*
X63429000Y-118936000D02*
X56571000Y-118936000D01*
X63429000Y-146064000D02*
X63429000Y-137936000D01*
X56571000Y-146064000D02*
X63429000Y-146064000D01*
X56571000Y-137936000D02*
X56571000Y-146064000D01*
X63429000Y-137936000D02*
X56571000Y-137936000D01*
X63429000Y-165064000D02*
X63429000Y-156936000D01*
X56571000Y-165064000D02*
X63429000Y-165064000D01*
X56571000Y-156936000D02*
X56571000Y-165064000D01*
X63429000Y-156936000D02*
X56571000Y-156936000D01*
X63429000Y-184064000D02*
X63429000Y-175936000D01*
X56571000Y-184064000D02*
X63429000Y-184064000D01*
X56571000Y-175936000D02*
X56571000Y-184064000D01*
X63429000Y-175936000D02*
X56571000Y-175936000D01*
X63429000Y-203064000D02*
X63429000Y-194936000D01*
X56571000Y-203064000D02*
X63429000Y-203064000D01*
X56571000Y-194936000D02*
X56571000Y-203064000D01*
X63429000Y-194936000D02*
X56571000Y-194936000D01*
X63429000Y-222064000D02*
X63429000Y-213936000D01*
X56571000Y-222064000D02*
X63429000Y-222064000D01*
X56571000Y-213936000D02*
X56571000Y-222064000D01*
X63429000Y-213936000D02*
X56571000Y-213936000D01*
X63429000Y-241064000D02*
X63429000Y-232936000D01*
X56571000Y-241064000D02*
X63429000Y-241064000D01*
X56571000Y-232936000D02*
X56571000Y-241064000D01*
X63429000Y-232936000D02*
X56571000Y-232936000D01*
X63429000Y-260064000D02*
X63429000Y-251936000D01*
X56571000Y-260064000D02*
X63429000Y-260064000D01*
X56571000Y-251936000D02*
X56571000Y-260064000D01*
X63429000Y-251936000D02*
X56571000Y-251936000D01*
X112064000Y-296571000D02*
X103936000Y-296571000D01*
X112064000Y-303429000D02*
X112064000Y-296571000D01*
X103936000Y-303429000D02*
X112064000Y-303429000D01*
X103936000Y-296571000D02*
X103936000Y-303429000D01*
X135064000Y-296571000D02*
X126936000Y-296571000D01*
X135064000Y-303429000D02*
X135064000Y-296571000D01*
X126936000Y-303429000D02*
X135064000Y-303429000D01*
X126936000Y-296571000D02*
X126936000Y-303429000D01*
X158064000Y-296571000D02*
X149936000Y-296571000D01*
X158064000Y-303429000D02*
X158064000Y-296571000D01*
X149936000Y-303429000D02*
X158064000Y-303429000D01*
X149936000Y-296571000D02*
X149936000Y-303429000D01*
X181064000Y-296571000D02*
X172936000Y-296571000D01*
X181064000Y-303429000D02*
X181064000Y-296571000D01*
X172936000Y-303429000D02*
X181064000Y-303429000D01*
X172936000Y-296571000D02*
X172936000Y-303429000D01*
X204064000Y-296571000D02*
X195936000Y-296571000D01*
X204064000Y-303429000D02*
X204064000Y-296571000D01*
X195936000Y-303429000D02*
X204064000Y-303429000D01*
X195936000Y-296571000D02*
X195936000Y-303429000D01*
X227064000Y-296571000D02*
X218936000Y-296571000D01*
X227064000Y-303429000D02*
X227064000Y-296571000D01*
X218936000Y-303429000D02*
X227064000Y-303429000D01*
X218936000Y-296571000D02*
X218936000Y-303429000D01*
X250064000Y-296571000D02*
X241936000Y-296571000D01*
X250064000Y-303429000D02*
X250064000Y-296571000D01*
X241936000Y-303429000D02*
X250064000Y-303429000D01*
X241936000Y-296571000D02*
X241936000Y-303429000D01*
X273064000Y-296571000D02*
X264936000Y-296571000D01*
X273064000Y-303429000D02*
X273064000Y-296571000D01*
X264936000Y-303429000D02*
X273064000Y-303429000D01*
X264936000Y-296571000D02*
X264936000Y-303429000D01*
X296064000Y-296571000D02*
X287936000Y-296571000D01*
X296064000Y-303429000D02*
X296064000Y-296571000D01*
X287936000Y-303429000D02*
X296064000Y-303429000D01*
X287936000Y-296571000D02*
X287936000Y-303429000D01*
X296064000Y-68571000D02*
X287936000Y-68571000D01*
X296064000Y-75429000D02*
X296064000Y-68571000D01*
X287936000Y-75429000D02*
X296064000Y-75429000D01*
X287936000Y-68571000D02*
X287936000Y-75429000D01*
X273064000Y-68571000D02*
X264936000Y-68571000D01*
X273064000Y-75429000D02*
X273064000Y-68571000D01*
X264936000Y-75429000D02*
X273064000Y-75429000D01*
X264936000Y-68571000D02*
X264936000Y-75429000D01*
X250064000Y-68571000D02*
X241936000Y-68571000D01*
X250064000Y-75429000D02*
X250064000Y-68571000D01*
X241936000Y-75429000D02*
X250064000Y-75429000D01*
X241936000Y-68571000D02*
X241936000Y-75429000D01*
X227064000Y-68571000D02*
X218936000Y-68571000D01*
X227064000Y-75429000D02*
X227064000Y-68571000D01*
X218936000Y-75429000D02*
X227064000Y-75429000D01*
X218936000Y-68571000D02*
X218936000Y-75429000D01*
X204064000Y-68571000D02*
X195936000Y-68571000D01*
X204064000Y-75429000D02*
X204064000Y-68571000D01*
X195936000Y-75429000D02*
X204064000Y-75429000D01*
X195936000Y-68571000D02*
X195936000Y-75429000D01*
X181064000Y-68571000D02*
X172936000Y-68571000D01*
X181064000Y-75429000D02*
X181064000Y-68571000D01*
X172936000Y-75429000D02*
X181064000Y-75429000D01*
X172936000Y-68571000D02*
X172936000Y-75429000D01*
X158064000Y-68571000D02*
X149936000Y-68571000D01*
X158064000Y-75429000D02*
X158064000Y-68571000D01*
X149936000Y-75429000D02*
X158064000Y-75429000D01*
X149936000Y-68571000D02*
X149936000Y-75429000D01*
X135064000Y-68571000D02*
X126936000Y-68571000D01*
X135064000Y-75429000D02*
X135064000Y-68571000D01*
X126936000Y-75429000D02*
X135064000Y-75429000D01*
X126936000Y-68571000D02*
X126936000Y-75429000D01*
X112064000Y-68571000D02*
X103936000Y-68571000D01*
X112064000Y-75429000D02*
X112064000Y-68571000D01*
X103936000Y-75429000D02*
X112064000Y-75429000D01*
X103936000Y-68571000D02*
X103936000Y-75429000D01*
D11*
X344262500Y-284740000D02*
G75*
G03X344262500Y-284740000I-4762500J0D01*
G01*
X347424800Y-284740000D02*
G75*
G03X347424800Y-284740000I-7924800J0D01*
G01*
X344262500Y-75260000D02*
G75*
G03X344262500Y-75260000I-4762500J0D01*
G01*
X347424800Y-75260000D02*
G75*
G03X347424800Y-75260000I-7924800J0D01*
G01*
X65262500Y-284740000D02*
G75*
G03X65262500Y-284740000I-4762500J0D01*
G01*
X68424800Y-284740000D02*
G75*
G03X68424800Y-284740000I-7924800J0D01*
G01*
X65262500Y-75260000D02*
G75*
G03X65262500Y-75260000I-4762500J0D01*
G01*
X68424800Y-75260000D02*
G75*
G03X68424800Y-75260000I-7924800J0D01*
G01*
X95850000Y-58540000D02*
X95850000Y-53460000D01*
X95850000Y-53460000D02*
X83150000Y-53460000D01*
X83150000Y-53460000D02*
X83150000Y-58540000D01*
X83150000Y-58540000D02*
X95850000Y-58540000D01*
X93310000Y-53460000D02*
X93310000Y-51936000D01*
X93310000Y-51936000D02*
X85690000Y-51936000D01*
X85690000Y-51936000D02*
X85690000Y-53460000D01*
X93310000Y-59175000D02*
X93945000Y-59810000D01*
X93945000Y-59810000D02*
X92675000Y-59810000D01*
X92675000Y-59810000D02*
X93310000Y-59175000D01*
X105675000Y-59810000D02*
X106310000Y-59175000D01*
X106945000Y-59810000D02*
X105675000Y-59810000D01*
X106310000Y-59175000D02*
X106945000Y-59810000D01*
X98690000Y-51936000D02*
X98690000Y-53460000D01*
X106310000Y-51936000D02*
X98690000Y-51936000D01*
X106310000Y-53460000D02*
X106310000Y-51936000D01*
X96150000Y-58540000D02*
X108850000Y-58540000D01*
X96150000Y-53460000D02*
X96150000Y-58540000D01*
X108850000Y-53460000D02*
X96150000Y-53460000D01*
X108850000Y-58540000D02*
X108850000Y-53460000D01*
X121850000Y-58540000D02*
X121850000Y-53460000D01*
X121850000Y-53460000D02*
X109150000Y-53460000D01*
X109150000Y-53460000D02*
X109150000Y-58540000D01*
X109150000Y-58540000D02*
X121850000Y-58540000D01*
X119310000Y-53460000D02*
X119310000Y-51936000D01*
X119310000Y-51936000D02*
X111690000Y-51936000D01*
X111690000Y-51936000D02*
X111690000Y-53460000D01*
X119310000Y-59175000D02*
X119945000Y-59810000D01*
X119945000Y-59810000D02*
X118675000Y-59810000D01*
X118675000Y-59810000D02*
X119310000Y-59175000D01*
X131675000Y-59810000D02*
X132310000Y-59175000D01*
X132945000Y-59810000D02*
X131675000Y-59810000D01*
X132310000Y-59175000D02*
X132945000Y-59810000D01*
X124690000Y-51936000D02*
X124690000Y-53460000D01*
X132310000Y-51936000D02*
X124690000Y-51936000D01*
X132310000Y-53460000D02*
X132310000Y-51936000D01*
X122150000Y-58540000D02*
X134850000Y-58540000D01*
X122150000Y-53460000D02*
X122150000Y-58540000D01*
X134850000Y-53460000D02*
X122150000Y-53460000D01*
X134850000Y-58540000D02*
X134850000Y-53460000D01*
X144675000Y-59810000D02*
X145310000Y-59175000D01*
X145945000Y-59810000D02*
X144675000Y-59810000D01*
X145310000Y-59175000D02*
X145945000Y-59810000D01*
X137690000Y-51936000D02*
X137690000Y-53460000D01*
X145310000Y-51936000D02*
X137690000Y-51936000D01*
X145310000Y-53460000D02*
X145310000Y-51936000D01*
X135150000Y-58540000D02*
X147850000Y-58540000D01*
X135150000Y-53460000D02*
X135150000Y-58540000D01*
X147850000Y-53460000D02*
X135150000Y-53460000D01*
X147850000Y-58540000D02*
X147850000Y-53460000D01*
X160850000Y-58540000D02*
X160850000Y-53460000D01*
X160850000Y-53460000D02*
X148150000Y-53460000D01*
X148150000Y-53460000D02*
X148150000Y-58540000D01*
X148150000Y-58540000D02*
X160850000Y-58540000D01*
X158310000Y-53460000D02*
X158310000Y-51936000D01*
X158310000Y-51936000D02*
X150690000Y-51936000D01*
X150690000Y-51936000D02*
X150690000Y-53460000D01*
X158310000Y-59175000D02*
X158945000Y-59810000D01*
X158945000Y-59810000D02*
X157675000Y-59810000D01*
X157675000Y-59810000D02*
X158310000Y-59175000D01*
X170675000Y-59810000D02*
X171310000Y-59175000D01*
X171945000Y-59810000D02*
X170675000Y-59810000D01*
X171310000Y-59175000D02*
X171945000Y-59810000D01*
X163690000Y-51936000D02*
X163690000Y-53460000D01*
X171310000Y-51936000D02*
X163690000Y-51936000D01*
X171310000Y-53460000D02*
X171310000Y-51936000D01*
X161150000Y-58540000D02*
X173850000Y-58540000D01*
X161150000Y-53460000D02*
X161150000Y-58540000D01*
X173850000Y-53460000D02*
X161150000Y-53460000D01*
X173850000Y-58540000D02*
X173850000Y-53460000D01*
X186850000Y-58540000D02*
X186850000Y-53460000D01*
X186850000Y-53460000D02*
X174150000Y-53460000D01*
X174150000Y-53460000D02*
X174150000Y-58540000D01*
X174150000Y-58540000D02*
X186850000Y-58540000D01*
X184310000Y-53460000D02*
X184310000Y-51936000D01*
X184310000Y-51936000D02*
X176690000Y-51936000D01*
X176690000Y-51936000D02*
X176690000Y-53460000D01*
X184310000Y-59175000D02*
X184945000Y-59810000D01*
X184945000Y-59810000D02*
X183675000Y-59810000D01*
X183675000Y-59810000D02*
X184310000Y-59175000D01*
X196675000Y-59810000D02*
X197310000Y-59175000D01*
X197945000Y-59810000D02*
X196675000Y-59810000D01*
X197310000Y-59175000D02*
X197945000Y-59810000D01*
X189690000Y-51936000D02*
X189690000Y-53460000D01*
X197310000Y-51936000D02*
X189690000Y-51936000D01*
X197310000Y-53460000D02*
X197310000Y-51936000D01*
X187150000Y-58540000D02*
X199850000Y-58540000D01*
X187150000Y-53460000D02*
X187150000Y-58540000D01*
X199850000Y-53460000D02*
X187150000Y-53460000D01*
X199850000Y-58540000D02*
X199850000Y-53460000D01*
X212850000Y-58540000D02*
X212850000Y-53460000D01*
X212850000Y-53460000D02*
X200150000Y-53460000D01*
X200150000Y-53460000D02*
X200150000Y-58540000D01*
X200150000Y-58540000D02*
X212850000Y-58540000D01*
X210310000Y-53460000D02*
X210310000Y-51936000D01*
X210310000Y-51936000D02*
X202690000Y-51936000D01*
X202690000Y-51936000D02*
X202690000Y-53460000D01*
X210310000Y-59175000D02*
X210945000Y-59810000D01*
X210945000Y-59810000D02*
X209675000Y-59810000D01*
X209675000Y-59810000D02*
X210310000Y-59175000D01*
X222675000Y-59810000D02*
X223310000Y-59175000D01*
X223945000Y-59810000D02*
X222675000Y-59810000D01*
X223310000Y-59175000D02*
X223945000Y-59810000D01*
X215690000Y-51936000D02*
X215690000Y-53460000D01*
X223310000Y-51936000D02*
X215690000Y-51936000D01*
X223310000Y-53460000D02*
X223310000Y-51936000D01*
X213150000Y-58540000D02*
X225850000Y-58540000D01*
X213150000Y-53460000D02*
X213150000Y-58540000D01*
X225850000Y-53460000D02*
X213150000Y-53460000D01*
X225850000Y-58540000D02*
X225850000Y-53460000D01*
X235675000Y-59810000D02*
X236310000Y-59175000D01*
X236945000Y-59810000D02*
X235675000Y-59810000D01*
X236310000Y-59175000D02*
X236945000Y-59810000D01*
X228690000Y-51936000D02*
X228690000Y-53460000D01*
X236310000Y-51936000D02*
X228690000Y-51936000D01*
X236310000Y-53460000D02*
X236310000Y-51936000D01*
X226150000Y-58540000D02*
X238850000Y-58540000D01*
X226150000Y-53460000D02*
X226150000Y-58540000D01*
X238850000Y-53460000D02*
X226150000Y-53460000D01*
X238850000Y-58540000D02*
X238850000Y-53460000D01*
X251850000Y-58540000D02*
X251850000Y-53460000D01*
X251850000Y-53460000D02*
X239150000Y-53460000D01*
X239150000Y-53460000D02*
X239150000Y-58540000D01*
X239150000Y-58540000D02*
X251850000Y-58540000D01*
X249310000Y-53460000D02*
X249310000Y-51936000D01*
X249310000Y-51936000D02*
X241690000Y-51936000D01*
X241690000Y-51936000D02*
X241690000Y-53460000D01*
X249310000Y-59175000D02*
X249945000Y-59810000D01*
X249945000Y-59810000D02*
X248675000Y-59810000D01*
X248675000Y-59810000D02*
X249310000Y-59175000D01*
X264850000Y-58540000D02*
X264850000Y-53460000D01*
X264850000Y-53460000D02*
X252150000Y-53460000D01*
X252150000Y-53460000D02*
X252150000Y-58540000D01*
X252150000Y-58540000D02*
X264850000Y-58540000D01*
X262310000Y-53460000D02*
X262310000Y-51936000D01*
X262310000Y-51936000D02*
X254690000Y-51936000D01*
X254690000Y-51936000D02*
X254690000Y-53460000D01*
X262310000Y-59175000D02*
X262945000Y-59810000D01*
X262945000Y-59810000D02*
X261675000Y-59810000D01*
X261675000Y-59810000D02*
X262310000Y-59175000D01*
X274675000Y-59810000D02*
X275310000Y-59175000D01*
X275945000Y-59810000D02*
X274675000Y-59810000D01*
X275310000Y-59175000D02*
X275945000Y-59810000D01*
X267690000Y-51936000D02*
X267690000Y-53460000D01*
X275310000Y-51936000D02*
X267690000Y-51936000D01*
X275310000Y-53460000D02*
X275310000Y-51936000D01*
X265150000Y-58540000D02*
X277850000Y-58540000D01*
X265150000Y-53460000D02*
X265150000Y-58540000D01*
X277850000Y-53460000D02*
X265150000Y-53460000D01*
X277850000Y-58540000D02*
X277850000Y-53460000D01*
X290850000Y-58540000D02*
X290850000Y-53460000D01*
X290850000Y-53460000D02*
X278150000Y-53460000D01*
X278150000Y-53460000D02*
X278150000Y-58540000D01*
X278150000Y-58540000D02*
X290850000Y-58540000D01*
X288310000Y-53460000D02*
X288310000Y-51936000D01*
X288310000Y-51936000D02*
X280690000Y-51936000D01*
X280690000Y-51936000D02*
X280690000Y-53460000D01*
X288310000Y-59175000D02*
X288945000Y-59810000D01*
X288945000Y-59810000D02*
X287675000Y-59810000D01*
X287675000Y-59810000D02*
X288310000Y-59175000D01*
X300675000Y-59810000D02*
X301310000Y-59175000D01*
X301945000Y-59810000D02*
X300675000Y-59810000D01*
X301310000Y-59175000D02*
X301945000Y-59810000D01*
X293690000Y-51936000D02*
X293690000Y-53460000D01*
X301310000Y-51936000D02*
X293690000Y-51936000D01*
X301310000Y-53460000D02*
X301310000Y-51936000D01*
X291150000Y-58540000D02*
X303850000Y-58540000D01*
X291150000Y-53460000D02*
X291150000Y-58540000D01*
X303850000Y-53460000D02*
X291150000Y-53460000D01*
X303850000Y-58540000D02*
X303850000Y-53460000D01*
X313675000Y-59810000D02*
X314310000Y-59175000D01*
X314945000Y-59810000D02*
X313675000Y-59810000D01*
X314310000Y-59175000D02*
X314945000Y-59810000D01*
X306690000Y-51936000D02*
X306690000Y-53460000D01*
X314310000Y-51936000D02*
X306690000Y-51936000D01*
X314310000Y-53460000D02*
X314310000Y-51936000D01*
X304150000Y-58540000D02*
X316850000Y-58540000D01*
X304150000Y-53460000D02*
X304150000Y-58540000D01*
X316850000Y-53460000D02*
X304150000Y-53460000D01*
X316850000Y-58540000D02*
X316850000Y-53460000D01*
D12*
X339443619Y-263172476D02*
X340169333Y-263172476D01*
X340314476Y-263220857D01*
X340411238Y-263317619D01*
X340459619Y-263462761D01*
X340459619Y-263559523D01*
X339443619Y-262785428D02*
X339443619Y-262156476D01*
X339830666Y-262495142D01*
X339830666Y-262350000D01*
X339879047Y-262253238D01*
X339927428Y-262204857D01*
X340024190Y-262156476D01*
X340266095Y-262156476D01*
X340362857Y-262204857D01*
X340411238Y-262253238D01*
X340459619Y-262350000D01*
X340459619Y-262640285D01*
X340411238Y-262737047D01*
X340362857Y-262785428D01*
X339443619Y-261817809D02*
X339443619Y-261140476D01*
X340459619Y-261575904D01*
D10*
X335028857Y-254675571D02*
X335028857Y-253514428D01*
X335028857Y-258485571D02*
X335028857Y-257324428D01*
X335609428Y-257905000D02*
X334448285Y-257905000D01*
X345188857Y-254675571D02*
X345188857Y-253514428D01*
X345188857Y-258485571D02*
X345188857Y-257324428D01*
X345769428Y-257905000D02*
X344608285Y-257905000D01*
D12*
X339443619Y-244172476D02*
X340169333Y-244172476D01*
X340314476Y-244220857D01*
X340411238Y-244317619D01*
X340459619Y-244462761D01*
X340459619Y-244559523D01*
X339443619Y-243785428D02*
X339443619Y-243156476D01*
X339830666Y-243495142D01*
X339830666Y-243350000D01*
X339879047Y-243253238D01*
X339927428Y-243204857D01*
X340024190Y-243156476D01*
X340266095Y-243156476D01*
X340362857Y-243204857D01*
X340411238Y-243253238D01*
X340459619Y-243350000D01*
X340459619Y-243640285D01*
X340411238Y-243737047D01*
X340362857Y-243785428D01*
X339879047Y-242575904D02*
X339830666Y-242672666D01*
X339782285Y-242721047D01*
X339685523Y-242769428D01*
X339637142Y-242769428D01*
X339540380Y-242721047D01*
X339492000Y-242672666D01*
X339443619Y-242575904D01*
X339443619Y-242382380D01*
X339492000Y-242285619D01*
X339540380Y-242237238D01*
X339637142Y-242188857D01*
X339685523Y-242188857D01*
X339782285Y-242237238D01*
X339830666Y-242285619D01*
X339879047Y-242382380D01*
X339879047Y-242575904D01*
X339927428Y-242672666D01*
X339975809Y-242721047D01*
X340072571Y-242769428D01*
X340266095Y-242769428D01*
X340362857Y-242721047D01*
X340411238Y-242672666D01*
X340459619Y-242575904D01*
X340459619Y-242382380D01*
X340411238Y-242285619D01*
X340362857Y-242237238D01*
X340266095Y-242188857D01*
X340072571Y-242188857D01*
X339975809Y-242237238D01*
X339927428Y-242285619D01*
X339879047Y-242382380D01*
D10*
X335028857Y-235675571D02*
X335028857Y-234514428D01*
X335028857Y-239485571D02*
X335028857Y-238324428D01*
X335609428Y-238905000D02*
X334448285Y-238905000D01*
X345188857Y-235675571D02*
X345188857Y-234514428D01*
X345188857Y-239485571D02*
X345188857Y-238324428D01*
X345769428Y-238905000D02*
X344608285Y-238905000D01*
D12*
X339443619Y-225172476D02*
X340169333Y-225172476D01*
X340314476Y-225220857D01*
X340411238Y-225317619D01*
X340459619Y-225462761D01*
X340459619Y-225559523D01*
X339443619Y-224785428D02*
X339443619Y-224156476D01*
X339830666Y-224495142D01*
X339830666Y-224350000D01*
X339879047Y-224253238D01*
X339927428Y-224204857D01*
X340024190Y-224156476D01*
X340266095Y-224156476D01*
X340362857Y-224204857D01*
X340411238Y-224253238D01*
X340459619Y-224350000D01*
X340459619Y-224640285D01*
X340411238Y-224737047D01*
X340362857Y-224785428D01*
X340459619Y-223672666D02*
X340459619Y-223479142D01*
X340411238Y-223382380D01*
X340362857Y-223334000D01*
X340217714Y-223237238D01*
X340024190Y-223188857D01*
X339637142Y-223188857D01*
X339540380Y-223237238D01*
X339492000Y-223285619D01*
X339443619Y-223382380D01*
X339443619Y-223575904D01*
X339492000Y-223672666D01*
X339540380Y-223721047D01*
X339637142Y-223769428D01*
X339879047Y-223769428D01*
X339975809Y-223721047D01*
X340024190Y-223672666D01*
X340072571Y-223575904D01*
X340072571Y-223382380D01*
X340024190Y-223285619D01*
X339975809Y-223237238D01*
X339879047Y-223188857D01*
D10*
X335028857Y-216675571D02*
X335028857Y-215514428D01*
X335028857Y-220485571D02*
X335028857Y-219324428D01*
X335609428Y-219905000D02*
X334448285Y-219905000D01*
X345188857Y-216675571D02*
X345188857Y-215514428D01*
X345188857Y-220485571D02*
X345188857Y-219324428D01*
X345769428Y-219905000D02*
X344608285Y-219905000D01*
D12*
X339443619Y-206172476D02*
X340169333Y-206172476D01*
X340314476Y-206220857D01*
X340411238Y-206317619D01*
X340459619Y-206462761D01*
X340459619Y-206559523D01*
X339782285Y-205253238D02*
X340459619Y-205253238D01*
X339395238Y-205495142D02*
X340120952Y-205737047D01*
X340120952Y-205108095D01*
X339443619Y-204527523D02*
X339443619Y-204430761D01*
X339492000Y-204334000D01*
X339540380Y-204285619D01*
X339637142Y-204237238D01*
X339830666Y-204188857D01*
X340072571Y-204188857D01*
X340266095Y-204237238D01*
X340362857Y-204285619D01*
X340411238Y-204334000D01*
X340459619Y-204430761D01*
X340459619Y-204527523D01*
X340411238Y-204624285D01*
X340362857Y-204672666D01*
X340266095Y-204721047D01*
X340072571Y-204769428D01*
X339830666Y-204769428D01*
X339637142Y-204721047D01*
X339540380Y-204672666D01*
X339492000Y-204624285D01*
X339443619Y-204527523D01*
D10*
X335028857Y-197675571D02*
X335028857Y-196514428D01*
X335028857Y-201485571D02*
X335028857Y-200324428D01*
X335609428Y-200905000D02*
X334448285Y-200905000D01*
X345188857Y-197675571D02*
X345188857Y-196514428D01*
X345188857Y-201485571D02*
X345188857Y-200324428D01*
X345769428Y-200905000D02*
X344608285Y-200905000D01*
D12*
X339443619Y-187172476D02*
X340169333Y-187172476D01*
X340314476Y-187220857D01*
X340411238Y-187317619D01*
X340459619Y-187462761D01*
X340459619Y-187559523D01*
X339782285Y-186253238D02*
X340459619Y-186253238D01*
X339395238Y-186495142D02*
X340120952Y-186737047D01*
X340120952Y-186108095D01*
X340459619Y-185188857D02*
X340459619Y-185769428D01*
X340459619Y-185479142D02*
X339443619Y-185479142D01*
X339588761Y-185575904D01*
X339685523Y-185672666D01*
X339733904Y-185769428D01*
D10*
X335028857Y-178675571D02*
X335028857Y-177514428D01*
X335028857Y-182485571D02*
X335028857Y-181324428D01*
X335609428Y-181905000D02*
X334448285Y-181905000D01*
X345188857Y-178675571D02*
X345188857Y-177514428D01*
X345188857Y-182485571D02*
X345188857Y-181324428D01*
X345769428Y-181905000D02*
X344608285Y-181905000D01*
D12*
X339443619Y-168172476D02*
X340169333Y-168172476D01*
X340314476Y-168220857D01*
X340411238Y-168317619D01*
X340459619Y-168462761D01*
X340459619Y-168559523D01*
X339782285Y-167253238D02*
X340459619Y-167253238D01*
X339395238Y-167495142D02*
X340120952Y-167737047D01*
X340120952Y-167108095D01*
X339540380Y-166769428D02*
X339492000Y-166721047D01*
X339443619Y-166624285D01*
X339443619Y-166382380D01*
X339492000Y-166285619D01*
X339540380Y-166237238D01*
X339637142Y-166188857D01*
X339733904Y-166188857D01*
X339879047Y-166237238D01*
X340459619Y-166817809D01*
X340459619Y-166188857D01*
D10*
X335028857Y-159675571D02*
X335028857Y-158514428D01*
X335028857Y-163485571D02*
X335028857Y-162324428D01*
X335609428Y-162905000D02*
X334448285Y-162905000D01*
X345188857Y-159675571D02*
X345188857Y-158514428D01*
X345188857Y-163485571D02*
X345188857Y-162324428D01*
X345769428Y-162905000D02*
X344608285Y-162905000D01*
D12*
X339443619Y-149172476D02*
X340169333Y-149172476D01*
X340314476Y-149220857D01*
X340411238Y-149317619D01*
X340459619Y-149462761D01*
X340459619Y-149559523D01*
X339782285Y-148253238D02*
X340459619Y-148253238D01*
X339395238Y-148495142D02*
X340120952Y-148737047D01*
X340120952Y-148108095D01*
X339443619Y-147817809D02*
X339443619Y-147188857D01*
X339830666Y-147527523D01*
X339830666Y-147382380D01*
X339879047Y-147285619D01*
X339927428Y-147237238D01*
X340024190Y-147188857D01*
X340266095Y-147188857D01*
X340362857Y-147237238D01*
X340411238Y-147285619D01*
X340459619Y-147382380D01*
X340459619Y-147672666D01*
X340411238Y-147769428D01*
X340362857Y-147817809D01*
D10*
X335028857Y-140675571D02*
X335028857Y-139514428D01*
X335028857Y-144485571D02*
X335028857Y-143324428D01*
X335609428Y-143905000D02*
X334448285Y-143905000D01*
X345188857Y-140675571D02*
X345188857Y-139514428D01*
X345188857Y-144485571D02*
X345188857Y-143324428D01*
X345769428Y-143905000D02*
X344608285Y-143905000D01*
D12*
X339443619Y-130172476D02*
X340169333Y-130172476D01*
X340314476Y-130220857D01*
X340411238Y-130317619D01*
X340459619Y-130462761D01*
X340459619Y-130559523D01*
X339782285Y-129253238D02*
X340459619Y-129253238D01*
X339395238Y-129495142D02*
X340120952Y-129737047D01*
X340120952Y-129108095D01*
X339782285Y-128285619D02*
X340459619Y-128285619D01*
X339395238Y-128527523D02*
X340120952Y-128769428D01*
X340120952Y-128140476D01*
D10*
X335028857Y-121675571D02*
X335028857Y-120514428D01*
X335028857Y-125485571D02*
X335028857Y-124324428D01*
X335609428Y-124905000D02*
X334448285Y-124905000D01*
X345188857Y-121675571D02*
X345188857Y-120514428D01*
X345188857Y-125485571D02*
X345188857Y-124324428D01*
X345769428Y-124905000D02*
X344608285Y-124905000D01*
D12*
X339443619Y-111172476D02*
X340169333Y-111172476D01*
X340314476Y-111220857D01*
X340411238Y-111317619D01*
X340459619Y-111462761D01*
X340459619Y-111559523D01*
X339782285Y-110253238D02*
X340459619Y-110253238D01*
X339395238Y-110495142D02*
X340120952Y-110737047D01*
X340120952Y-110108095D01*
X339443619Y-109237238D02*
X339443619Y-109721047D01*
X339927428Y-109769428D01*
X339879047Y-109721047D01*
X339830666Y-109624285D01*
X339830666Y-109382380D01*
X339879047Y-109285619D01*
X339927428Y-109237238D01*
X340024190Y-109188857D01*
X340266095Y-109188857D01*
X340362857Y-109237238D01*
X340411238Y-109285619D01*
X340459619Y-109382380D01*
X340459619Y-109624285D01*
X340411238Y-109721047D01*
X340362857Y-109769428D01*
D10*
X335028857Y-102675571D02*
X335028857Y-101514428D01*
X335028857Y-106485571D02*
X335028857Y-105324428D01*
X335609428Y-105905000D02*
X334448285Y-105905000D01*
X345188857Y-102675571D02*
X345188857Y-101514428D01*
X345188857Y-106485571D02*
X345188857Y-105324428D01*
X345769428Y-105905000D02*
X344608285Y-105905000D01*
D12*
X59443619Y-111172476D02*
X60169333Y-111172476D01*
X60314476Y-111220857D01*
X60411238Y-111317619D01*
X60459619Y-111462761D01*
X60459619Y-111559523D01*
X60459619Y-110156476D02*
X60459619Y-110737047D01*
X60459619Y-110446761D02*
X59443619Y-110446761D01*
X59588761Y-110543523D01*
X59685523Y-110640285D01*
X59733904Y-110737047D01*
X60459619Y-109672666D02*
X60459619Y-109479142D01*
X60411238Y-109382380D01*
X60362857Y-109334000D01*
X60217714Y-109237238D01*
X60024190Y-109188857D01*
X59637142Y-109188857D01*
X59540380Y-109237238D01*
X59492000Y-109285619D01*
X59443619Y-109382380D01*
X59443619Y-109575904D01*
X59492000Y-109672666D01*
X59540380Y-109721047D01*
X59637142Y-109769428D01*
X59879047Y-109769428D01*
X59975809Y-109721047D01*
X60024190Y-109672666D01*
X60072571Y-109575904D01*
X60072571Y-109382380D01*
X60024190Y-109285619D01*
X59975809Y-109237238D01*
X59879047Y-109188857D01*
D10*
X55028857Y-102675571D02*
X55028857Y-101514428D01*
X55028857Y-106485571D02*
X55028857Y-105324428D01*
X55609428Y-105905000D02*
X54448285Y-105905000D01*
X65188857Y-102675571D02*
X65188857Y-101514428D01*
X65188857Y-106485571D02*
X65188857Y-105324428D01*
X65769428Y-105905000D02*
X64608285Y-105905000D01*
D12*
X59443619Y-130172476D02*
X60169333Y-130172476D01*
X60314476Y-130220857D01*
X60411238Y-130317619D01*
X60459619Y-130462761D01*
X60459619Y-130559523D01*
X59540380Y-129737047D02*
X59492000Y-129688666D01*
X59443619Y-129591904D01*
X59443619Y-129350000D01*
X59492000Y-129253238D01*
X59540380Y-129204857D01*
X59637142Y-129156476D01*
X59733904Y-129156476D01*
X59879047Y-129204857D01*
X60459619Y-129785428D01*
X60459619Y-129156476D01*
X59443619Y-128527523D02*
X59443619Y-128430761D01*
X59492000Y-128334000D01*
X59540380Y-128285619D01*
X59637142Y-128237238D01*
X59830666Y-128188857D01*
X60072571Y-128188857D01*
X60266095Y-128237238D01*
X60362857Y-128285619D01*
X60411238Y-128334000D01*
X60459619Y-128430761D01*
X60459619Y-128527523D01*
X60411238Y-128624285D01*
X60362857Y-128672666D01*
X60266095Y-128721047D01*
X60072571Y-128769428D01*
X59830666Y-128769428D01*
X59637142Y-128721047D01*
X59540380Y-128672666D01*
X59492000Y-128624285D01*
X59443619Y-128527523D01*
D10*
X55028857Y-121675571D02*
X55028857Y-120514428D01*
X55028857Y-125485571D02*
X55028857Y-124324428D01*
X55609428Y-124905000D02*
X54448285Y-124905000D01*
X65188857Y-121675571D02*
X65188857Y-120514428D01*
X65188857Y-125485571D02*
X65188857Y-124324428D01*
X65769428Y-124905000D02*
X64608285Y-124905000D01*
D12*
X59443619Y-149172476D02*
X60169333Y-149172476D01*
X60314476Y-149220857D01*
X60411238Y-149317619D01*
X60459619Y-149462761D01*
X60459619Y-149559523D01*
X59540380Y-148737047D02*
X59492000Y-148688666D01*
X59443619Y-148591904D01*
X59443619Y-148350000D01*
X59492000Y-148253238D01*
X59540380Y-148204857D01*
X59637142Y-148156476D01*
X59733904Y-148156476D01*
X59879047Y-148204857D01*
X60459619Y-148785428D01*
X60459619Y-148156476D01*
X60459619Y-147188857D02*
X60459619Y-147769428D01*
X60459619Y-147479142D02*
X59443619Y-147479142D01*
X59588761Y-147575904D01*
X59685523Y-147672666D01*
X59733904Y-147769428D01*
D10*
X55028857Y-140675571D02*
X55028857Y-139514428D01*
X55028857Y-144485571D02*
X55028857Y-143324428D01*
X55609428Y-143905000D02*
X54448285Y-143905000D01*
X65188857Y-140675571D02*
X65188857Y-139514428D01*
X65188857Y-144485571D02*
X65188857Y-143324428D01*
X65769428Y-143905000D02*
X64608285Y-143905000D01*
D12*
X59443619Y-168172476D02*
X60169333Y-168172476D01*
X60314476Y-168220857D01*
X60411238Y-168317619D01*
X60459619Y-168462761D01*
X60459619Y-168559523D01*
X59540380Y-167737047D02*
X59492000Y-167688666D01*
X59443619Y-167591904D01*
X59443619Y-167350000D01*
X59492000Y-167253238D01*
X59540380Y-167204857D01*
X59637142Y-167156476D01*
X59733904Y-167156476D01*
X59879047Y-167204857D01*
X60459619Y-167785428D01*
X60459619Y-167156476D01*
X59540380Y-166769428D02*
X59492000Y-166721047D01*
X59443619Y-166624285D01*
X59443619Y-166382380D01*
X59492000Y-166285619D01*
X59540380Y-166237238D01*
X59637142Y-166188857D01*
X59733904Y-166188857D01*
X59879047Y-166237238D01*
X60459619Y-166817809D01*
X60459619Y-166188857D01*
D10*
X55028857Y-159675571D02*
X55028857Y-158514428D01*
X55028857Y-163485571D02*
X55028857Y-162324428D01*
X55609428Y-162905000D02*
X54448285Y-162905000D01*
X65188857Y-159675571D02*
X65188857Y-158514428D01*
X65188857Y-163485571D02*
X65188857Y-162324428D01*
X65769428Y-162905000D02*
X64608285Y-162905000D01*
D12*
X59443619Y-187172476D02*
X60169333Y-187172476D01*
X60314476Y-187220857D01*
X60411238Y-187317619D01*
X60459619Y-187462761D01*
X60459619Y-187559523D01*
X59540380Y-186737047D02*
X59492000Y-186688666D01*
X59443619Y-186591904D01*
X59443619Y-186350000D01*
X59492000Y-186253238D01*
X59540380Y-186204857D01*
X59637142Y-186156476D01*
X59733904Y-186156476D01*
X59879047Y-186204857D01*
X60459619Y-186785428D01*
X60459619Y-186156476D01*
X59443619Y-185817809D02*
X59443619Y-185188857D01*
X59830666Y-185527523D01*
X59830666Y-185382380D01*
X59879047Y-185285619D01*
X59927428Y-185237238D01*
X60024190Y-185188857D01*
X60266095Y-185188857D01*
X60362857Y-185237238D01*
X60411238Y-185285619D01*
X60459619Y-185382380D01*
X60459619Y-185672666D01*
X60411238Y-185769428D01*
X60362857Y-185817809D01*
D10*
X55028857Y-178675571D02*
X55028857Y-177514428D01*
X55028857Y-182485571D02*
X55028857Y-181324428D01*
X55609428Y-181905000D02*
X54448285Y-181905000D01*
X65188857Y-178675571D02*
X65188857Y-177514428D01*
X65188857Y-182485571D02*
X65188857Y-181324428D01*
X65769428Y-181905000D02*
X64608285Y-181905000D01*
D12*
X59443619Y-206172476D02*
X60169333Y-206172476D01*
X60314476Y-206220857D01*
X60411238Y-206317619D01*
X60459619Y-206462761D01*
X60459619Y-206559523D01*
X59540380Y-205737047D02*
X59492000Y-205688666D01*
X59443619Y-205591904D01*
X59443619Y-205350000D01*
X59492000Y-205253238D01*
X59540380Y-205204857D01*
X59637142Y-205156476D01*
X59733904Y-205156476D01*
X59879047Y-205204857D01*
X60459619Y-205785428D01*
X60459619Y-205156476D01*
X59782285Y-204285619D02*
X60459619Y-204285619D01*
X59395238Y-204527523D02*
X60120952Y-204769428D01*
X60120952Y-204140476D01*
D10*
X55028857Y-197675571D02*
X55028857Y-196514428D01*
X55028857Y-201485571D02*
X55028857Y-200324428D01*
X55609428Y-200905000D02*
X54448285Y-200905000D01*
X65188857Y-197675571D02*
X65188857Y-196514428D01*
X65188857Y-201485571D02*
X65188857Y-200324428D01*
X65769428Y-200905000D02*
X64608285Y-200905000D01*
D12*
X59443619Y-225172476D02*
X60169333Y-225172476D01*
X60314476Y-225220857D01*
X60411238Y-225317619D01*
X60459619Y-225462761D01*
X60459619Y-225559523D01*
X59540380Y-224737047D02*
X59492000Y-224688666D01*
X59443619Y-224591904D01*
X59443619Y-224350000D01*
X59492000Y-224253238D01*
X59540380Y-224204857D01*
X59637142Y-224156476D01*
X59733904Y-224156476D01*
X59879047Y-224204857D01*
X60459619Y-224785428D01*
X60459619Y-224156476D01*
X59443619Y-223237238D02*
X59443619Y-223721047D01*
X59927428Y-223769428D01*
X59879047Y-223721047D01*
X59830666Y-223624285D01*
X59830666Y-223382380D01*
X59879047Y-223285619D01*
X59927428Y-223237238D01*
X60024190Y-223188857D01*
X60266095Y-223188857D01*
X60362857Y-223237238D01*
X60411238Y-223285619D01*
X60459619Y-223382380D01*
X60459619Y-223624285D01*
X60411238Y-223721047D01*
X60362857Y-223769428D01*
D10*
X55028857Y-216675571D02*
X55028857Y-215514428D01*
X55028857Y-220485571D02*
X55028857Y-219324428D01*
X55609428Y-219905000D02*
X54448285Y-219905000D01*
X65188857Y-216675571D02*
X65188857Y-215514428D01*
X65188857Y-220485571D02*
X65188857Y-219324428D01*
X65769428Y-219905000D02*
X64608285Y-219905000D01*
D12*
X59443619Y-244172476D02*
X60169333Y-244172476D01*
X60314476Y-244220857D01*
X60411238Y-244317619D01*
X60459619Y-244462761D01*
X60459619Y-244559523D01*
X59540380Y-243737047D02*
X59492000Y-243688666D01*
X59443619Y-243591904D01*
X59443619Y-243350000D01*
X59492000Y-243253238D01*
X59540380Y-243204857D01*
X59637142Y-243156476D01*
X59733904Y-243156476D01*
X59879047Y-243204857D01*
X60459619Y-243785428D01*
X60459619Y-243156476D01*
X59443619Y-242285619D02*
X59443619Y-242479142D01*
X59492000Y-242575904D01*
X59540380Y-242624285D01*
X59685523Y-242721047D01*
X59879047Y-242769428D01*
X60266095Y-242769428D01*
X60362857Y-242721047D01*
X60411238Y-242672666D01*
X60459619Y-242575904D01*
X60459619Y-242382380D01*
X60411238Y-242285619D01*
X60362857Y-242237238D01*
X60266095Y-242188857D01*
X60024190Y-242188857D01*
X59927428Y-242237238D01*
X59879047Y-242285619D01*
X59830666Y-242382380D01*
X59830666Y-242575904D01*
X59879047Y-242672666D01*
X59927428Y-242721047D01*
X60024190Y-242769428D01*
D10*
X55028857Y-235675571D02*
X55028857Y-234514428D01*
X55028857Y-239485571D02*
X55028857Y-238324428D01*
X55609428Y-238905000D02*
X54448285Y-238905000D01*
X65188857Y-235675571D02*
X65188857Y-234514428D01*
X65188857Y-239485571D02*
X65188857Y-238324428D01*
X65769428Y-238905000D02*
X64608285Y-238905000D01*
D12*
X59443619Y-263172476D02*
X60169333Y-263172476D01*
X60314476Y-263220857D01*
X60411238Y-263317619D01*
X60459619Y-263462761D01*
X60459619Y-263559523D01*
X59540380Y-262737047D02*
X59492000Y-262688666D01*
X59443619Y-262591904D01*
X59443619Y-262350000D01*
X59492000Y-262253238D01*
X59540380Y-262204857D01*
X59637142Y-262156476D01*
X59733904Y-262156476D01*
X59879047Y-262204857D01*
X60459619Y-262785428D01*
X60459619Y-262156476D01*
X59443619Y-261817809D02*
X59443619Y-261140476D01*
X60459619Y-261575904D01*
D10*
X55028857Y-254675571D02*
X55028857Y-253514428D01*
X55028857Y-258485571D02*
X55028857Y-257324428D01*
X55609428Y-257905000D02*
X54448285Y-257905000D01*
X65188857Y-254675571D02*
X65188857Y-253514428D01*
X65188857Y-258485571D02*
X65188857Y-257324428D01*
X65769428Y-257905000D02*
X64608285Y-257905000D01*
D12*
X113527523Y-299443619D02*
X113527523Y-300169333D01*
X113479142Y-300314476D01*
X113382380Y-300411238D01*
X113237238Y-300459619D01*
X113140476Y-300459619D01*
X113962952Y-299540380D02*
X114011333Y-299492000D01*
X114108095Y-299443619D01*
X114350000Y-299443619D01*
X114446761Y-299492000D01*
X114495142Y-299540380D01*
X114543523Y-299637142D01*
X114543523Y-299733904D01*
X114495142Y-299879047D01*
X113914571Y-300459619D01*
X114543523Y-300459619D01*
X115124095Y-299879047D02*
X115027333Y-299830666D01*
X114978952Y-299782285D01*
X114930571Y-299685523D01*
X114930571Y-299637142D01*
X114978952Y-299540380D01*
X115027333Y-299492000D01*
X115124095Y-299443619D01*
X115317619Y-299443619D01*
X115414380Y-299492000D01*
X115462761Y-299540380D01*
X115511142Y-299637142D01*
X115511142Y-299685523D01*
X115462761Y-299782285D01*
X115414380Y-299830666D01*
X115317619Y-299879047D01*
X115124095Y-299879047D01*
X115027333Y-299927428D01*
X114978952Y-299975809D01*
X114930571Y-300072571D01*
X114930571Y-300266095D01*
X114978952Y-300362857D01*
X115027333Y-300411238D01*
X115124095Y-300459619D01*
X115317619Y-300459619D01*
X115414380Y-300411238D01*
X115462761Y-300362857D01*
X115511142Y-300266095D01*
X115511142Y-300072571D01*
X115462761Y-299975809D01*
X115414380Y-299927428D01*
X115317619Y-299879047D01*
D10*
X105514428Y-305188857D02*
X106675571Y-305188857D01*
X109324428Y-305188857D02*
X110485571Y-305188857D01*
X109905000Y-305769428D02*
X109905000Y-304608285D01*
X105514428Y-295028857D02*
X106675571Y-295028857D01*
X109324428Y-295028857D02*
X110485571Y-295028857D01*
X109905000Y-295609428D02*
X109905000Y-294448285D01*
D12*
X136527523Y-299443619D02*
X136527523Y-300169333D01*
X136479142Y-300314476D01*
X136382380Y-300411238D01*
X136237238Y-300459619D01*
X136140476Y-300459619D01*
X136962952Y-299540380D02*
X137011333Y-299492000D01*
X137108095Y-299443619D01*
X137350000Y-299443619D01*
X137446761Y-299492000D01*
X137495142Y-299540380D01*
X137543523Y-299637142D01*
X137543523Y-299733904D01*
X137495142Y-299879047D01*
X136914571Y-300459619D01*
X137543523Y-300459619D01*
X138027333Y-300459619D02*
X138220857Y-300459619D01*
X138317619Y-300411238D01*
X138366000Y-300362857D01*
X138462761Y-300217714D01*
X138511142Y-300024190D01*
X138511142Y-299637142D01*
X138462761Y-299540380D01*
X138414380Y-299492000D01*
X138317619Y-299443619D01*
X138124095Y-299443619D01*
X138027333Y-299492000D01*
X137978952Y-299540380D01*
X137930571Y-299637142D01*
X137930571Y-299879047D01*
X137978952Y-299975809D01*
X138027333Y-300024190D01*
X138124095Y-300072571D01*
X138317619Y-300072571D01*
X138414380Y-300024190D01*
X138462761Y-299975809D01*
X138511142Y-299879047D01*
D10*
X128514428Y-305188857D02*
X129675571Y-305188857D01*
X132324428Y-305188857D02*
X133485571Y-305188857D01*
X132905000Y-305769428D02*
X132905000Y-304608285D01*
X128514428Y-295028857D02*
X129675571Y-295028857D01*
X132324428Y-295028857D02*
X133485571Y-295028857D01*
X132905000Y-295609428D02*
X132905000Y-294448285D01*
D12*
X159527523Y-299443619D02*
X159527523Y-300169333D01*
X159479142Y-300314476D01*
X159382380Y-300411238D01*
X159237238Y-300459619D01*
X159140476Y-300459619D01*
X159914571Y-299443619D02*
X160543523Y-299443619D01*
X160204857Y-299830666D01*
X160350000Y-299830666D01*
X160446761Y-299879047D01*
X160495142Y-299927428D01*
X160543523Y-300024190D01*
X160543523Y-300266095D01*
X160495142Y-300362857D01*
X160446761Y-300411238D01*
X160350000Y-300459619D01*
X160059714Y-300459619D01*
X159962952Y-300411238D01*
X159914571Y-300362857D01*
X161172476Y-299443619D02*
X161269238Y-299443619D01*
X161366000Y-299492000D01*
X161414380Y-299540380D01*
X161462761Y-299637142D01*
X161511142Y-299830666D01*
X161511142Y-300072571D01*
X161462761Y-300266095D01*
X161414380Y-300362857D01*
X161366000Y-300411238D01*
X161269238Y-300459619D01*
X161172476Y-300459619D01*
X161075714Y-300411238D01*
X161027333Y-300362857D01*
X160978952Y-300266095D01*
X160930571Y-300072571D01*
X160930571Y-299830666D01*
X160978952Y-299637142D01*
X161027333Y-299540380D01*
X161075714Y-299492000D01*
X161172476Y-299443619D01*
D10*
X151514428Y-305188857D02*
X152675571Y-305188857D01*
X155324428Y-305188857D02*
X156485571Y-305188857D01*
X155905000Y-305769428D02*
X155905000Y-304608285D01*
X151514428Y-295028857D02*
X152675571Y-295028857D01*
X155324428Y-295028857D02*
X156485571Y-295028857D01*
X155905000Y-295609428D02*
X155905000Y-294448285D01*
D12*
X182527523Y-299443619D02*
X182527523Y-300169333D01*
X182479142Y-300314476D01*
X182382380Y-300411238D01*
X182237238Y-300459619D01*
X182140476Y-300459619D01*
X182914571Y-299443619D02*
X183543523Y-299443619D01*
X183204857Y-299830666D01*
X183350000Y-299830666D01*
X183446761Y-299879047D01*
X183495142Y-299927428D01*
X183543523Y-300024190D01*
X183543523Y-300266095D01*
X183495142Y-300362857D01*
X183446761Y-300411238D01*
X183350000Y-300459619D01*
X183059714Y-300459619D01*
X182962952Y-300411238D01*
X182914571Y-300362857D01*
X184511142Y-300459619D02*
X183930571Y-300459619D01*
X184220857Y-300459619D02*
X184220857Y-299443619D01*
X184124095Y-299588761D01*
X184027333Y-299685523D01*
X183930571Y-299733904D01*
D10*
X174514428Y-305188857D02*
X175675571Y-305188857D01*
X178324428Y-305188857D02*
X179485571Y-305188857D01*
X178905000Y-305769428D02*
X178905000Y-304608285D01*
X174514428Y-295028857D02*
X175675571Y-295028857D01*
X178324428Y-295028857D02*
X179485571Y-295028857D01*
X178905000Y-295609428D02*
X178905000Y-294448285D01*
D12*
X205527523Y-299443619D02*
X205527523Y-300169333D01*
X205479142Y-300314476D01*
X205382380Y-300411238D01*
X205237238Y-300459619D01*
X205140476Y-300459619D01*
X205914571Y-299443619D02*
X206543523Y-299443619D01*
X206204857Y-299830666D01*
X206350000Y-299830666D01*
X206446761Y-299879047D01*
X206495142Y-299927428D01*
X206543523Y-300024190D01*
X206543523Y-300266095D01*
X206495142Y-300362857D01*
X206446761Y-300411238D01*
X206350000Y-300459619D01*
X206059714Y-300459619D01*
X205962952Y-300411238D01*
X205914571Y-300362857D01*
X206930571Y-299540380D02*
X206978952Y-299492000D01*
X207075714Y-299443619D01*
X207317619Y-299443619D01*
X207414380Y-299492000D01*
X207462761Y-299540380D01*
X207511142Y-299637142D01*
X207511142Y-299733904D01*
X207462761Y-299879047D01*
X206882190Y-300459619D01*
X207511142Y-300459619D01*
D10*
X197514428Y-305188857D02*
X198675571Y-305188857D01*
X201324428Y-305188857D02*
X202485571Y-305188857D01*
X201905000Y-305769428D02*
X201905000Y-304608285D01*
X197514428Y-295028857D02*
X198675571Y-295028857D01*
X201324428Y-295028857D02*
X202485571Y-295028857D01*
X201905000Y-295609428D02*
X201905000Y-294448285D01*
D12*
X228527523Y-299443619D02*
X228527523Y-300169333D01*
X228479142Y-300314476D01*
X228382380Y-300411238D01*
X228237238Y-300459619D01*
X228140476Y-300459619D01*
X228914571Y-299443619D02*
X229543523Y-299443619D01*
X229204857Y-299830666D01*
X229350000Y-299830666D01*
X229446761Y-299879047D01*
X229495142Y-299927428D01*
X229543523Y-300024190D01*
X229543523Y-300266095D01*
X229495142Y-300362857D01*
X229446761Y-300411238D01*
X229350000Y-300459619D01*
X229059714Y-300459619D01*
X228962952Y-300411238D01*
X228914571Y-300362857D01*
X229882190Y-299443619D02*
X230511142Y-299443619D01*
X230172476Y-299830666D01*
X230317619Y-299830666D01*
X230414380Y-299879047D01*
X230462761Y-299927428D01*
X230511142Y-300024190D01*
X230511142Y-300266095D01*
X230462761Y-300362857D01*
X230414380Y-300411238D01*
X230317619Y-300459619D01*
X230027333Y-300459619D01*
X229930571Y-300411238D01*
X229882190Y-300362857D01*
D10*
X220514428Y-305188857D02*
X221675571Y-305188857D01*
X224324428Y-305188857D02*
X225485571Y-305188857D01*
X224905000Y-305769428D02*
X224905000Y-304608285D01*
X220514428Y-295028857D02*
X221675571Y-295028857D01*
X224324428Y-295028857D02*
X225485571Y-295028857D01*
X224905000Y-295609428D02*
X224905000Y-294448285D01*
D12*
X251527523Y-299443619D02*
X251527523Y-300169333D01*
X251479142Y-300314476D01*
X251382380Y-300411238D01*
X251237238Y-300459619D01*
X251140476Y-300459619D01*
X251914571Y-299443619D02*
X252543523Y-299443619D01*
X252204857Y-299830666D01*
X252350000Y-299830666D01*
X252446761Y-299879047D01*
X252495142Y-299927428D01*
X252543523Y-300024190D01*
X252543523Y-300266095D01*
X252495142Y-300362857D01*
X252446761Y-300411238D01*
X252350000Y-300459619D01*
X252059714Y-300459619D01*
X251962952Y-300411238D01*
X251914571Y-300362857D01*
X253414380Y-299782285D02*
X253414380Y-300459619D01*
X253172476Y-299395238D02*
X252930571Y-300120952D01*
X253559523Y-300120952D01*
D10*
X243514428Y-305188857D02*
X244675571Y-305188857D01*
X247324428Y-305188857D02*
X248485571Y-305188857D01*
X247905000Y-305769428D02*
X247905000Y-304608285D01*
X243514428Y-295028857D02*
X244675571Y-295028857D01*
X247324428Y-295028857D02*
X248485571Y-295028857D01*
X247905000Y-295609428D02*
X247905000Y-294448285D01*
D12*
X274527523Y-299443619D02*
X274527523Y-300169333D01*
X274479142Y-300314476D01*
X274382380Y-300411238D01*
X274237238Y-300459619D01*
X274140476Y-300459619D01*
X274914571Y-299443619D02*
X275543523Y-299443619D01*
X275204857Y-299830666D01*
X275350000Y-299830666D01*
X275446761Y-299879047D01*
X275495142Y-299927428D01*
X275543523Y-300024190D01*
X275543523Y-300266095D01*
X275495142Y-300362857D01*
X275446761Y-300411238D01*
X275350000Y-300459619D01*
X275059714Y-300459619D01*
X274962952Y-300411238D01*
X274914571Y-300362857D01*
X276462761Y-299443619D02*
X275978952Y-299443619D01*
X275930571Y-299927428D01*
X275978952Y-299879047D01*
X276075714Y-299830666D01*
X276317619Y-299830666D01*
X276414380Y-299879047D01*
X276462761Y-299927428D01*
X276511142Y-300024190D01*
X276511142Y-300266095D01*
X276462761Y-300362857D01*
X276414380Y-300411238D01*
X276317619Y-300459619D01*
X276075714Y-300459619D01*
X275978952Y-300411238D01*
X275930571Y-300362857D01*
D10*
X266514428Y-305188857D02*
X267675571Y-305188857D01*
X270324428Y-305188857D02*
X271485571Y-305188857D01*
X270905000Y-305769428D02*
X270905000Y-304608285D01*
X266514428Y-295028857D02*
X267675571Y-295028857D01*
X270324428Y-295028857D02*
X271485571Y-295028857D01*
X270905000Y-295609428D02*
X270905000Y-294448285D01*
D12*
X297527523Y-299443619D02*
X297527523Y-300169333D01*
X297479142Y-300314476D01*
X297382380Y-300411238D01*
X297237238Y-300459619D01*
X297140476Y-300459619D01*
X297914571Y-299443619D02*
X298543523Y-299443619D01*
X298204857Y-299830666D01*
X298350000Y-299830666D01*
X298446761Y-299879047D01*
X298495142Y-299927428D01*
X298543523Y-300024190D01*
X298543523Y-300266095D01*
X298495142Y-300362857D01*
X298446761Y-300411238D01*
X298350000Y-300459619D01*
X298059714Y-300459619D01*
X297962952Y-300411238D01*
X297914571Y-300362857D01*
X299414380Y-299443619D02*
X299220857Y-299443619D01*
X299124095Y-299492000D01*
X299075714Y-299540380D01*
X298978952Y-299685523D01*
X298930571Y-299879047D01*
X298930571Y-300266095D01*
X298978952Y-300362857D01*
X299027333Y-300411238D01*
X299124095Y-300459619D01*
X299317619Y-300459619D01*
X299414380Y-300411238D01*
X299462761Y-300362857D01*
X299511142Y-300266095D01*
X299511142Y-300024190D01*
X299462761Y-299927428D01*
X299414380Y-299879047D01*
X299317619Y-299830666D01*
X299124095Y-299830666D01*
X299027333Y-299879047D01*
X298978952Y-299927428D01*
X298930571Y-300024190D01*
D10*
X289514428Y-305188857D02*
X290675571Y-305188857D01*
X293324428Y-305188857D02*
X294485571Y-305188857D01*
X293905000Y-305769428D02*
X293905000Y-304608285D01*
X289514428Y-295028857D02*
X290675571Y-295028857D01*
X293324428Y-295028857D02*
X294485571Y-295028857D01*
X293905000Y-295609428D02*
X293905000Y-294448285D01*
D12*
X297527523Y-71443619D02*
X297527523Y-72169333D01*
X297479142Y-72314476D01*
X297382380Y-72411238D01*
X297237238Y-72459619D01*
X297140476Y-72459619D01*
X298446761Y-71782285D02*
X298446761Y-72459619D01*
X298204857Y-71395238D02*
X297962952Y-72120952D01*
X298591904Y-72120952D01*
X299414380Y-71443619D02*
X299220857Y-71443619D01*
X299124095Y-71492000D01*
X299075714Y-71540380D01*
X298978952Y-71685523D01*
X298930571Y-71879047D01*
X298930571Y-72266095D01*
X298978952Y-72362857D01*
X299027333Y-72411238D01*
X299124095Y-72459619D01*
X299317619Y-72459619D01*
X299414380Y-72411238D01*
X299462761Y-72362857D01*
X299511142Y-72266095D01*
X299511142Y-72024190D01*
X299462761Y-71927428D01*
X299414380Y-71879047D01*
X299317619Y-71830666D01*
X299124095Y-71830666D01*
X299027333Y-71879047D01*
X298978952Y-71927428D01*
X298930571Y-72024190D01*
D10*
X289514428Y-77188857D02*
X290675571Y-77188857D01*
X293324428Y-77188857D02*
X294485571Y-77188857D01*
X293905000Y-77769428D02*
X293905000Y-76608285D01*
X289514428Y-67028857D02*
X290675571Y-67028857D01*
X293324428Y-67028857D02*
X294485571Y-67028857D01*
X293905000Y-67609428D02*
X293905000Y-66448285D01*
D12*
X274527523Y-71443619D02*
X274527523Y-72169333D01*
X274479142Y-72314476D01*
X274382380Y-72411238D01*
X274237238Y-72459619D01*
X274140476Y-72459619D01*
X275446761Y-71782285D02*
X275446761Y-72459619D01*
X275204857Y-71395238D02*
X274962952Y-72120952D01*
X275591904Y-72120952D01*
X275882190Y-71443619D02*
X276559523Y-71443619D01*
X276124095Y-72459619D01*
D10*
X266514428Y-77188857D02*
X267675571Y-77188857D01*
X270324428Y-77188857D02*
X271485571Y-77188857D01*
X270905000Y-77769428D02*
X270905000Y-76608285D01*
X266514428Y-67028857D02*
X267675571Y-67028857D01*
X270324428Y-67028857D02*
X271485571Y-67028857D01*
X270905000Y-67609428D02*
X270905000Y-66448285D01*
D12*
X251527523Y-71443619D02*
X251527523Y-72169333D01*
X251479142Y-72314476D01*
X251382380Y-72411238D01*
X251237238Y-72459619D01*
X251140476Y-72459619D01*
X252446761Y-71782285D02*
X252446761Y-72459619D01*
X252204857Y-71395238D02*
X251962952Y-72120952D01*
X252591904Y-72120952D01*
X253124095Y-71879047D02*
X253027333Y-71830666D01*
X252978952Y-71782285D01*
X252930571Y-71685523D01*
X252930571Y-71637142D01*
X252978952Y-71540380D01*
X253027333Y-71492000D01*
X253124095Y-71443619D01*
X253317619Y-71443619D01*
X253414380Y-71492000D01*
X253462761Y-71540380D01*
X253511142Y-71637142D01*
X253511142Y-71685523D01*
X253462761Y-71782285D01*
X253414380Y-71830666D01*
X253317619Y-71879047D01*
X253124095Y-71879047D01*
X253027333Y-71927428D01*
X252978952Y-71975809D01*
X252930571Y-72072571D01*
X252930571Y-72266095D01*
X252978952Y-72362857D01*
X253027333Y-72411238D01*
X253124095Y-72459619D01*
X253317619Y-72459619D01*
X253414380Y-72411238D01*
X253462761Y-72362857D01*
X253511142Y-72266095D01*
X253511142Y-72072571D01*
X253462761Y-71975809D01*
X253414380Y-71927428D01*
X253317619Y-71879047D01*
D10*
X243514428Y-77188857D02*
X244675571Y-77188857D01*
X247324428Y-77188857D02*
X248485571Y-77188857D01*
X247905000Y-77769428D02*
X247905000Y-76608285D01*
X243514428Y-67028857D02*
X244675571Y-67028857D01*
X247324428Y-67028857D02*
X248485571Y-67028857D01*
X247905000Y-67609428D02*
X247905000Y-66448285D01*
D12*
X228527523Y-71443619D02*
X228527523Y-72169333D01*
X228479142Y-72314476D01*
X228382380Y-72411238D01*
X228237238Y-72459619D01*
X228140476Y-72459619D01*
X229446761Y-71782285D02*
X229446761Y-72459619D01*
X229204857Y-71395238D02*
X228962952Y-72120952D01*
X229591904Y-72120952D01*
X230027333Y-72459619D02*
X230220857Y-72459619D01*
X230317619Y-72411238D01*
X230366000Y-72362857D01*
X230462761Y-72217714D01*
X230511142Y-72024190D01*
X230511142Y-71637142D01*
X230462761Y-71540380D01*
X230414380Y-71492000D01*
X230317619Y-71443619D01*
X230124095Y-71443619D01*
X230027333Y-71492000D01*
X229978952Y-71540380D01*
X229930571Y-71637142D01*
X229930571Y-71879047D01*
X229978952Y-71975809D01*
X230027333Y-72024190D01*
X230124095Y-72072571D01*
X230317619Y-72072571D01*
X230414380Y-72024190D01*
X230462761Y-71975809D01*
X230511142Y-71879047D01*
D10*
X220514428Y-77188857D02*
X221675571Y-77188857D01*
X224324428Y-77188857D02*
X225485571Y-77188857D01*
X224905000Y-77769428D02*
X224905000Y-76608285D01*
X220514428Y-67028857D02*
X221675571Y-67028857D01*
X224324428Y-67028857D02*
X225485571Y-67028857D01*
X224905000Y-67609428D02*
X224905000Y-66448285D01*
D12*
X205527523Y-71443619D02*
X205527523Y-72169333D01*
X205479142Y-72314476D01*
X205382380Y-72411238D01*
X205237238Y-72459619D01*
X205140476Y-72459619D01*
X206495142Y-71443619D02*
X206011333Y-71443619D01*
X205962952Y-71927428D01*
X206011333Y-71879047D01*
X206108095Y-71830666D01*
X206350000Y-71830666D01*
X206446761Y-71879047D01*
X206495142Y-71927428D01*
X206543523Y-72024190D01*
X206543523Y-72266095D01*
X206495142Y-72362857D01*
X206446761Y-72411238D01*
X206350000Y-72459619D01*
X206108095Y-72459619D01*
X206011333Y-72411238D01*
X205962952Y-72362857D01*
X207172476Y-71443619D02*
X207269238Y-71443619D01*
X207366000Y-71492000D01*
X207414380Y-71540380D01*
X207462761Y-71637142D01*
X207511142Y-71830666D01*
X207511142Y-72072571D01*
X207462761Y-72266095D01*
X207414380Y-72362857D01*
X207366000Y-72411238D01*
X207269238Y-72459619D01*
X207172476Y-72459619D01*
X207075714Y-72411238D01*
X207027333Y-72362857D01*
X206978952Y-72266095D01*
X206930571Y-72072571D01*
X206930571Y-71830666D01*
X206978952Y-71637142D01*
X207027333Y-71540380D01*
X207075714Y-71492000D01*
X207172476Y-71443619D01*
D10*
X197514428Y-77188857D02*
X198675571Y-77188857D01*
X201324428Y-77188857D02*
X202485571Y-77188857D01*
X201905000Y-77769428D02*
X201905000Y-76608285D01*
X197514428Y-67028857D02*
X198675571Y-67028857D01*
X201324428Y-67028857D02*
X202485571Y-67028857D01*
X201905000Y-67609428D02*
X201905000Y-66448285D01*
D12*
X182527523Y-71443619D02*
X182527523Y-72169333D01*
X182479142Y-72314476D01*
X182382380Y-72411238D01*
X182237238Y-72459619D01*
X182140476Y-72459619D01*
X183495142Y-71443619D02*
X183011333Y-71443619D01*
X182962952Y-71927428D01*
X183011333Y-71879047D01*
X183108095Y-71830666D01*
X183350000Y-71830666D01*
X183446761Y-71879047D01*
X183495142Y-71927428D01*
X183543523Y-72024190D01*
X183543523Y-72266095D01*
X183495142Y-72362857D01*
X183446761Y-72411238D01*
X183350000Y-72459619D01*
X183108095Y-72459619D01*
X183011333Y-72411238D01*
X182962952Y-72362857D01*
X184511142Y-72459619D02*
X183930571Y-72459619D01*
X184220857Y-72459619D02*
X184220857Y-71443619D01*
X184124095Y-71588761D01*
X184027333Y-71685523D01*
X183930571Y-71733904D01*
D10*
X174514428Y-77188857D02*
X175675571Y-77188857D01*
X178324428Y-77188857D02*
X179485571Y-77188857D01*
X178905000Y-77769428D02*
X178905000Y-76608285D01*
X174514428Y-67028857D02*
X175675571Y-67028857D01*
X178324428Y-67028857D02*
X179485571Y-67028857D01*
X178905000Y-67609428D02*
X178905000Y-66448285D01*
D12*
X159527523Y-71443619D02*
X159527523Y-72169333D01*
X159479142Y-72314476D01*
X159382380Y-72411238D01*
X159237238Y-72459619D01*
X159140476Y-72459619D01*
X160495142Y-71443619D02*
X160011333Y-71443619D01*
X159962952Y-71927428D01*
X160011333Y-71879047D01*
X160108095Y-71830666D01*
X160350000Y-71830666D01*
X160446761Y-71879047D01*
X160495142Y-71927428D01*
X160543523Y-72024190D01*
X160543523Y-72266095D01*
X160495142Y-72362857D01*
X160446761Y-72411238D01*
X160350000Y-72459619D01*
X160108095Y-72459619D01*
X160011333Y-72411238D01*
X159962952Y-72362857D01*
X160930571Y-71540380D02*
X160978952Y-71492000D01*
X161075714Y-71443619D01*
X161317619Y-71443619D01*
X161414380Y-71492000D01*
X161462761Y-71540380D01*
X161511142Y-71637142D01*
X161511142Y-71733904D01*
X161462761Y-71879047D01*
X160882190Y-72459619D01*
X161511142Y-72459619D01*
D10*
X151514428Y-77188857D02*
X152675571Y-77188857D01*
X155324428Y-77188857D02*
X156485571Y-77188857D01*
X155905000Y-77769428D02*
X155905000Y-76608285D01*
X151514428Y-67028857D02*
X152675571Y-67028857D01*
X155324428Y-67028857D02*
X156485571Y-67028857D01*
X155905000Y-67609428D02*
X155905000Y-66448285D01*
D12*
X136527523Y-71443619D02*
X136527523Y-72169333D01*
X136479142Y-72314476D01*
X136382380Y-72411238D01*
X136237238Y-72459619D01*
X136140476Y-72459619D01*
X137495142Y-71443619D02*
X137011333Y-71443619D01*
X136962952Y-71927428D01*
X137011333Y-71879047D01*
X137108095Y-71830666D01*
X137350000Y-71830666D01*
X137446761Y-71879047D01*
X137495142Y-71927428D01*
X137543523Y-72024190D01*
X137543523Y-72266095D01*
X137495142Y-72362857D01*
X137446761Y-72411238D01*
X137350000Y-72459619D01*
X137108095Y-72459619D01*
X137011333Y-72411238D01*
X136962952Y-72362857D01*
X137882190Y-71443619D02*
X138511142Y-71443619D01*
X138172476Y-71830666D01*
X138317619Y-71830666D01*
X138414380Y-71879047D01*
X138462761Y-71927428D01*
X138511142Y-72024190D01*
X138511142Y-72266095D01*
X138462761Y-72362857D01*
X138414380Y-72411238D01*
X138317619Y-72459619D01*
X138027333Y-72459619D01*
X137930571Y-72411238D01*
X137882190Y-72362857D01*
D10*
X128514428Y-77188857D02*
X129675571Y-77188857D01*
X132324428Y-77188857D02*
X133485571Y-77188857D01*
X132905000Y-77769428D02*
X132905000Y-76608285D01*
X128514428Y-67028857D02*
X129675571Y-67028857D01*
X132324428Y-67028857D02*
X133485571Y-67028857D01*
X132905000Y-67609428D02*
X132905000Y-66448285D01*
D12*
X113527523Y-71443619D02*
X113527523Y-72169333D01*
X113479142Y-72314476D01*
X113382380Y-72411238D01*
X113237238Y-72459619D01*
X113140476Y-72459619D01*
X114495142Y-71443619D02*
X114011333Y-71443619D01*
X113962952Y-71927428D01*
X114011333Y-71879047D01*
X114108095Y-71830666D01*
X114350000Y-71830666D01*
X114446761Y-71879047D01*
X114495142Y-71927428D01*
X114543523Y-72024190D01*
X114543523Y-72266095D01*
X114495142Y-72362857D01*
X114446761Y-72411238D01*
X114350000Y-72459619D01*
X114108095Y-72459619D01*
X114011333Y-72411238D01*
X113962952Y-72362857D01*
X115414380Y-71782285D02*
X115414380Y-72459619D01*
X115172476Y-71395238D02*
X114930571Y-72120952D01*
X115559523Y-72120952D01*
D10*
X105514428Y-77188857D02*
X106675571Y-77188857D01*
X109324428Y-77188857D02*
X110485571Y-77188857D01*
X109905000Y-77769428D02*
X109905000Y-76608285D01*
X105514428Y-67028857D02*
X106675571Y-67028857D01*
X109324428Y-67028857D02*
X110485571Y-67028857D01*
X109905000Y-67609428D02*
X109905000Y-66448285D01*
D13*
X89246000Y-50502714D02*
X89246000Y-51047000D01*
X89209714Y-51155857D01*
X89137142Y-51228428D01*
X89028285Y-51264714D01*
X88955714Y-51264714D01*
X90008000Y-51264714D02*
X89572571Y-51264714D01*
X89790285Y-51264714D02*
X89790285Y-50502714D01*
X89717714Y-50611571D01*
X89645142Y-50684142D01*
X89572571Y-50720428D01*
X102246000Y-50502714D02*
X102246000Y-51047000D01*
X102209714Y-51155857D01*
X102137142Y-51228428D01*
X102028285Y-51264714D01*
X101955714Y-51264714D01*
X102572571Y-50575285D02*
X102608857Y-50539000D01*
X102681428Y-50502714D01*
X102862857Y-50502714D01*
X102935428Y-50539000D01*
X102971714Y-50575285D01*
X103008000Y-50647857D01*
X103008000Y-50720428D01*
X102971714Y-50829285D01*
X102536285Y-51264714D01*
X103008000Y-51264714D01*
X115246000Y-50502714D02*
X115246000Y-51047000D01*
X115209714Y-51155857D01*
X115137142Y-51228428D01*
X115028285Y-51264714D01*
X114955714Y-51264714D01*
X115536285Y-50502714D02*
X116008000Y-50502714D01*
X115754000Y-50793000D01*
X115862857Y-50793000D01*
X115935428Y-50829285D01*
X115971714Y-50865571D01*
X116008000Y-50938142D01*
X116008000Y-51119571D01*
X115971714Y-51192142D01*
X115935428Y-51228428D01*
X115862857Y-51264714D01*
X115645142Y-51264714D01*
X115572571Y-51228428D01*
X115536285Y-51192142D01*
X128246000Y-50502714D02*
X128246000Y-51047000D01*
X128209714Y-51155857D01*
X128137142Y-51228428D01*
X128028285Y-51264714D01*
X127955714Y-51264714D01*
X128935428Y-50756714D02*
X128935428Y-51264714D01*
X128754000Y-50466428D02*
X128572571Y-51010714D01*
X129044285Y-51010714D01*
X141246000Y-50502714D02*
X141246000Y-51047000D01*
X141209714Y-51155857D01*
X141137142Y-51228428D01*
X141028285Y-51264714D01*
X140955714Y-51264714D01*
X141971714Y-50502714D02*
X141608857Y-50502714D01*
X141572571Y-50865571D01*
X141608857Y-50829285D01*
X141681428Y-50793000D01*
X141862857Y-50793000D01*
X141935428Y-50829285D01*
X141971714Y-50865571D01*
X142008000Y-50938142D01*
X142008000Y-51119571D01*
X141971714Y-51192142D01*
X141935428Y-51228428D01*
X141862857Y-51264714D01*
X141681428Y-51264714D01*
X141608857Y-51228428D01*
X141572571Y-51192142D01*
X154246000Y-50502714D02*
X154246000Y-51047000D01*
X154209714Y-51155857D01*
X154137142Y-51228428D01*
X154028285Y-51264714D01*
X153955714Y-51264714D01*
X154935428Y-50502714D02*
X154790285Y-50502714D01*
X154717714Y-50539000D01*
X154681428Y-50575285D01*
X154608857Y-50684142D01*
X154572571Y-50829285D01*
X154572571Y-51119571D01*
X154608857Y-51192142D01*
X154645142Y-51228428D01*
X154717714Y-51264714D01*
X154862857Y-51264714D01*
X154935428Y-51228428D01*
X154971714Y-51192142D01*
X155008000Y-51119571D01*
X155008000Y-50938142D01*
X154971714Y-50865571D01*
X154935428Y-50829285D01*
X154862857Y-50793000D01*
X154717714Y-50793000D01*
X154645142Y-50829285D01*
X154608857Y-50865571D01*
X154572571Y-50938142D01*
X167246000Y-50502714D02*
X167246000Y-51047000D01*
X167209714Y-51155857D01*
X167137142Y-51228428D01*
X167028285Y-51264714D01*
X166955714Y-51264714D01*
X167536285Y-50502714D02*
X168044285Y-50502714D01*
X167717714Y-51264714D01*
X180246000Y-50502714D02*
X180246000Y-51047000D01*
X180209714Y-51155857D01*
X180137142Y-51228428D01*
X180028285Y-51264714D01*
X179955714Y-51264714D01*
X180717714Y-50829285D02*
X180645142Y-50793000D01*
X180608857Y-50756714D01*
X180572571Y-50684142D01*
X180572571Y-50647857D01*
X180608857Y-50575285D01*
X180645142Y-50539000D01*
X180717714Y-50502714D01*
X180862857Y-50502714D01*
X180935428Y-50539000D01*
X180971714Y-50575285D01*
X181008000Y-50647857D01*
X181008000Y-50684142D01*
X180971714Y-50756714D01*
X180935428Y-50793000D01*
X180862857Y-50829285D01*
X180717714Y-50829285D01*
X180645142Y-50865571D01*
X180608857Y-50901857D01*
X180572571Y-50974428D01*
X180572571Y-51119571D01*
X180608857Y-51192142D01*
X180645142Y-51228428D01*
X180717714Y-51264714D01*
X180862857Y-51264714D01*
X180935428Y-51228428D01*
X180971714Y-51192142D01*
X181008000Y-51119571D01*
X181008000Y-50974428D01*
X180971714Y-50901857D01*
X180935428Y-50865571D01*
X180862857Y-50829285D01*
X193246000Y-50502714D02*
X193246000Y-51047000D01*
X193209714Y-51155857D01*
X193137142Y-51228428D01*
X193028285Y-51264714D01*
X192955714Y-51264714D01*
X193645142Y-51264714D02*
X193790285Y-51264714D01*
X193862857Y-51228428D01*
X193899142Y-51192142D01*
X193971714Y-51083285D01*
X194008000Y-50938142D01*
X194008000Y-50647857D01*
X193971714Y-50575285D01*
X193935428Y-50539000D01*
X193862857Y-50502714D01*
X193717714Y-50502714D01*
X193645142Y-50539000D01*
X193608857Y-50575285D01*
X193572571Y-50647857D01*
X193572571Y-50829285D01*
X193608857Y-50901857D01*
X193645142Y-50938142D01*
X193717714Y-50974428D01*
X193862857Y-50974428D01*
X193935428Y-50938142D01*
X193971714Y-50901857D01*
X194008000Y-50829285D01*
X205883142Y-50502714D02*
X205883142Y-51047000D01*
X205846857Y-51155857D01*
X205774285Y-51228428D01*
X205665428Y-51264714D01*
X205592857Y-51264714D01*
X206645142Y-51264714D02*
X206209714Y-51264714D01*
X206427428Y-51264714D02*
X206427428Y-50502714D01*
X206354857Y-50611571D01*
X206282285Y-50684142D01*
X206209714Y-50720428D01*
X207116857Y-50502714D02*
X207189428Y-50502714D01*
X207262000Y-50539000D01*
X207298285Y-50575285D01*
X207334571Y-50647857D01*
X207370857Y-50793000D01*
X207370857Y-50974428D01*
X207334571Y-51119571D01*
X207298285Y-51192142D01*
X207262000Y-51228428D01*
X207189428Y-51264714D01*
X207116857Y-51264714D01*
X207044285Y-51228428D01*
X207008000Y-51192142D01*
X206971714Y-51119571D01*
X206935428Y-50974428D01*
X206935428Y-50793000D01*
X206971714Y-50647857D01*
X207008000Y-50575285D01*
X207044285Y-50539000D01*
X207116857Y-50502714D01*
X218883142Y-50502714D02*
X218883142Y-51047000D01*
X218846857Y-51155857D01*
X218774285Y-51228428D01*
X218665428Y-51264714D01*
X218592857Y-51264714D01*
X219645142Y-51264714D02*
X219209714Y-51264714D01*
X219427428Y-51264714D02*
X219427428Y-50502714D01*
X219354857Y-50611571D01*
X219282285Y-50684142D01*
X219209714Y-50720428D01*
X220370857Y-51264714D02*
X219935428Y-51264714D01*
X220153142Y-51264714D02*
X220153142Y-50502714D01*
X220080571Y-50611571D01*
X220008000Y-50684142D01*
X219935428Y-50720428D01*
X231883142Y-50502714D02*
X231883142Y-51047000D01*
X231846857Y-51155857D01*
X231774285Y-51228428D01*
X231665428Y-51264714D01*
X231592857Y-51264714D01*
X232645142Y-51264714D02*
X232209714Y-51264714D01*
X232427428Y-51264714D02*
X232427428Y-50502714D01*
X232354857Y-50611571D01*
X232282285Y-50684142D01*
X232209714Y-50720428D01*
X232935428Y-50575285D02*
X232971714Y-50539000D01*
X233044285Y-50502714D01*
X233225714Y-50502714D01*
X233298285Y-50539000D01*
X233334571Y-50575285D01*
X233370857Y-50647857D01*
X233370857Y-50720428D01*
X233334571Y-50829285D01*
X232899142Y-51264714D01*
X233370857Y-51264714D01*
X244883142Y-50502714D02*
X244883142Y-51047000D01*
X244846857Y-51155857D01*
X244774285Y-51228428D01*
X244665428Y-51264714D01*
X244592857Y-51264714D01*
X245645142Y-51264714D02*
X245209714Y-51264714D01*
X245427428Y-51264714D02*
X245427428Y-50502714D01*
X245354857Y-50611571D01*
X245282285Y-50684142D01*
X245209714Y-50720428D01*
X245899142Y-50502714D02*
X246370857Y-50502714D01*
X246116857Y-50793000D01*
X246225714Y-50793000D01*
X246298285Y-50829285D01*
X246334571Y-50865571D01*
X246370857Y-50938142D01*
X246370857Y-51119571D01*
X246334571Y-51192142D01*
X246298285Y-51228428D01*
X246225714Y-51264714D01*
X246008000Y-51264714D01*
X245935428Y-51228428D01*
X245899142Y-51192142D01*
X257883142Y-50502714D02*
X257883142Y-51047000D01*
X257846857Y-51155857D01*
X257774285Y-51228428D01*
X257665428Y-51264714D01*
X257592857Y-51264714D01*
X258645142Y-51264714D02*
X258209714Y-51264714D01*
X258427428Y-51264714D02*
X258427428Y-50502714D01*
X258354857Y-50611571D01*
X258282285Y-50684142D01*
X258209714Y-50720428D01*
X259298285Y-50756714D02*
X259298285Y-51264714D01*
X259116857Y-50466428D02*
X258935428Y-51010714D01*
X259407142Y-51010714D01*
X270883142Y-50502714D02*
X270883142Y-51047000D01*
X270846857Y-51155857D01*
X270774285Y-51228428D01*
X270665428Y-51264714D01*
X270592857Y-51264714D01*
X271645142Y-51264714D02*
X271209714Y-51264714D01*
X271427428Y-51264714D02*
X271427428Y-50502714D01*
X271354857Y-50611571D01*
X271282285Y-50684142D01*
X271209714Y-50720428D01*
X272334571Y-50502714D02*
X271971714Y-50502714D01*
X271935428Y-50865571D01*
X271971714Y-50829285D01*
X272044285Y-50793000D01*
X272225714Y-50793000D01*
X272298285Y-50829285D01*
X272334571Y-50865571D01*
X272370857Y-50938142D01*
X272370857Y-51119571D01*
X272334571Y-51192142D01*
X272298285Y-51228428D01*
X272225714Y-51264714D01*
X272044285Y-51264714D01*
X271971714Y-51228428D01*
X271935428Y-51192142D01*
X283883142Y-50502714D02*
X283883142Y-51047000D01*
X283846857Y-51155857D01*
X283774285Y-51228428D01*
X283665428Y-51264714D01*
X283592857Y-51264714D01*
X284645142Y-51264714D02*
X284209714Y-51264714D01*
X284427428Y-51264714D02*
X284427428Y-50502714D01*
X284354857Y-50611571D01*
X284282285Y-50684142D01*
X284209714Y-50720428D01*
X285298285Y-50502714D02*
X285153142Y-50502714D01*
X285080571Y-50539000D01*
X285044285Y-50575285D01*
X284971714Y-50684142D01*
X284935428Y-50829285D01*
X284935428Y-51119571D01*
X284971714Y-51192142D01*
X285008000Y-51228428D01*
X285080571Y-51264714D01*
X285225714Y-51264714D01*
X285298285Y-51228428D01*
X285334571Y-51192142D01*
X285370857Y-51119571D01*
X285370857Y-50938142D01*
X285334571Y-50865571D01*
X285298285Y-50829285D01*
X285225714Y-50793000D01*
X285080571Y-50793000D01*
X285008000Y-50829285D01*
X284971714Y-50865571D01*
X284935428Y-50938142D01*
X296883142Y-50502714D02*
X296883142Y-51047000D01*
X296846857Y-51155857D01*
X296774285Y-51228428D01*
X296665428Y-51264714D01*
X296592857Y-51264714D01*
X297645142Y-51264714D02*
X297209714Y-51264714D01*
X297427428Y-51264714D02*
X297427428Y-50502714D01*
X297354857Y-50611571D01*
X297282285Y-50684142D01*
X297209714Y-50720428D01*
X297899142Y-50502714D02*
X298407142Y-50502714D01*
X298080571Y-51264714D01*
X309883142Y-50502714D02*
X309883142Y-51047000D01*
X309846857Y-51155857D01*
X309774285Y-51228428D01*
X309665428Y-51264714D01*
X309592857Y-51264714D01*
X310645142Y-51264714D02*
X310209714Y-51264714D01*
X310427428Y-51264714D02*
X310427428Y-50502714D01*
X310354857Y-50611571D01*
X310282285Y-50684142D01*
X310209714Y-50720428D01*
X311080571Y-50829285D02*
X311008000Y-50793000D01*
X310971714Y-50756714D01*
X310935428Y-50684142D01*
X310935428Y-50647857D01*
X310971714Y-50575285D01*
X311008000Y-50539000D01*
X311080571Y-50502714D01*
X311225714Y-50502714D01*
X311298285Y-50539000D01*
X311334571Y-50575285D01*
X311370857Y-50647857D01*
X311370857Y-50684142D01*
X311334571Y-50756714D01*
X311298285Y-50793000D01*
X311225714Y-50829285D01*
X311080571Y-50829285D01*
X311008000Y-50865571D01*
X310971714Y-50901857D01*
X310935428Y-50974428D01*
X310935428Y-51119571D01*
X310971714Y-51192142D01*
X311008000Y-51228428D01*
X311080571Y-51264714D01*
X311225714Y-51264714D01*
X311298285Y-51228428D01*
X311334571Y-51192142D01*
X311370857Y-51119571D01*
X311370857Y-50974428D01*
X311334571Y-50901857D01*
X311298285Y-50865571D01*
X311225714Y-50829285D01*
M02*
